# Blender v2.93.6 OBJ File: ''
# www.blender.org
mtllib link3_convex.mtl
o link3.obj.convex
v 0.049881 -0.121000 -0.023787
v 0.054401 -0.121000 -0.008968
v 0.054918 -0.120998 0.007835
v 0.046301 -0.120999 0.030187
v 0.018842 -0.121005 0.051789
v -0.037087 -0.121018 -0.041023
v 0.052254 0.036272 -0.090089
v -0.038601 -0.029565 -0.012569
v 0.051103 0.042013 -0.067234
v 0.009506 -0.120998 -0.054968
v 0.098648 -0.033043 -0.101070
v 0.035118 -0.120998 -0.043010
v 0.113908 -0.034439 -0.091545
v -0.016675 -0.121001 -0.052758
v -0.054646 -0.120996 0.007606
v -0.049615 -0.120993 -0.024667
v 0.124558 -0.031581 -0.065814
v 0.129196 -0.029613 -0.000776
v -0.036818 -0.040392 -0.027215
v 0.047117 0.010420 -0.100870
v -0.037785 -0.063465 -0.033267
v 0.114440 -0.019110 -0.101004
v 0.099071 -0.005736 -0.108666
v 0.119397 0.000438 -0.100939
v 0.128178 -0.004663 -0.093017
v 0.124788 -0.019898 -0.091303
v 0.032959 -0.120999 0.044375
v 0.137561 -0.005199 -0.000591
v -0.025692 -0.120998 0.048999
v -0.037870 -0.120938 0.040342
v -0.046754 -0.120958 0.029540
v 0.090021 0.036133 -0.100948
v 0.104702 0.039999 -0.093489
v 0.106871 0.027909 -0.101004
v 0.091195 0.012603 -0.109398
v 0.070087 0.035040 -0.101035
v 0.075849 0.045553 -0.092371
v 0.005082 -0.038339 0.044914
v 0.082189 0.055156 -0.000568
v -0.006061 -0.034716 0.043348
v 0.041278 0.022893 -0.089486
v 0.090231 0.045707 -0.092298
v -0.054615 -0.120971 -0.008915
v 0.045446 -0.002465 -0.100871
v 0.078020 -0.036832 -0.101031
v 0.074742 -0.013768 -0.109198
v 0.125852 0.030017 -0.065915
v 0.132378 0.023833 -0.000608
v 0.133242 0.014384 -0.066199
v 0.133141 -0.014248 -0.066125
v 0.135174 -0.001263 -0.065815
v 0.053134 0.022457 -0.100909
v 0.106453 0.046881 -0.065611
v 0.112032 0.046705 -0.000601
v 0.115961 0.040596 -0.066544
v 0.116054 0.034788 -0.086166
v 0.136889 0.010212 -0.000544
v 0.011153 -0.075627 0.050959
v -0.039317 -0.028116 0.004217
v -0.044413 -0.038502 0.008708
v -0.040567 -0.036828 0.019002
v -0.034843 -0.026153 0.013918
v 0.091923 0.054511 -0.000611
v 0.085436 0.052613 -0.065979
v 0.130388 0.005292 -0.086852
v 0.063672 0.043158 -0.090569
v 0.120542 0.040058 -0.000546
v 0.063816 0.000704 -0.108261
v -0.044976 -0.070570 -0.025029
v 0.082949 -0.001596 -0.111203
v 0.076100 0.009457 -0.110146
v -0.015856 -0.030971 0.038380
v 0.059279 0.050110 -0.000606
v -0.028469 -0.030171 0.029575
v -0.025243 -0.036986 0.037023
v -0.043296 -0.038093 -0.012746
v -0.048402 -0.059829 -0.011451
v -0.046154 -0.041641 -0.002809
v 0.005735 -0.120998 0.054917
v -0.004142 -0.082124 0.052752
v -0.007130 -0.120995 0.054668
v -0.054422 -0.099662 -0.002010
v -0.050970 -0.076611 0.011643
v -0.033718 -0.039763 0.030905
v -0.041371 -0.056950 0.026752
v -0.036777 -0.086750 0.038714
v -0.051133 -0.089954 -0.016610
v 0.092584 -0.015935 -0.108213
v 0.116384 0.014279 -0.100933
v 0.122662 0.021421 -0.093747
v -0.052008 -0.102348 0.016770
v 0.126814 0.012786 -0.092758
v 0.114547 0.032140 -0.093809
v 0.134980 -0.017309 -0.000582
v -0.040366 -0.086669 -0.035095
v 0.051192 0.045464 -0.000885
v 0.063756 -0.012549 -0.106924
v -0.045138 -0.092390 0.029590
v 0.071485 0.054191 -0.000568
v 0.069431 0.051013 -0.065546
v -0.021153 -0.084459 0.048749
v -0.015534 -0.058545 0.047014
v -0.027533 -0.074282 0.044026
v -0.013154 -0.037657 0.043029
v -0.043274 -0.033617 -0.001422
v 0.121106 -0.029834 -0.084974
v -0.051532 -0.070878 -0.000953
v -0.003884 -0.060069 0.049675
v -0.051607 -0.121000 0.019395
v 0.077777 0.048397 -0.085805
v 0.104194 0.043301 -0.086449
v -0.039756 -0.037130 -0.020915
v 0.097133 0.050464 -0.066309
v 0.101588 0.006654 -0.107713
v 0.130133 -0.008256 -0.086718
v 0.124245 0.024384 -0.086628
v 0.059348 0.047189 -0.066195
v -0.018801 -0.107901 0.051551
v 0.102467 0.051469 -0.000564
v 0.085342 0.017137 -0.108684
v -0.036020 -0.032649 0.022938
v 0.130017 -0.022771 -0.065351
v -0.045407 -0.055497 0.018291
v 0.013829 -0.101191 0.052766
v -0.037863 -0.026501 -0.002726
v -0.030187 -0.026645 0.023146
v -0.048066 -0.080342 0.021576
v 0.127308 0.032247 -0.000507
v 0.066635 0.011381 -0.107910
v -0.029421 -0.057483 0.039624
v -0.028926 -0.098079 0.045977
vn -0.0002 -1.0000 0.0001
vn 0.0002 -1.0000 0.0000
vn -0.6847 0.6979 -0.2098
vn 0.3139 -0.6705 -0.6723
vn 0.3439 -0.6775 -0.6502
vn -0.0000 -1.0000 -0.0015
vn 0.0003 -1.0000 -0.0005
vn -0.0026 -1.0000 -0.0005
vn 0.7749 -0.6310 -0.0362
vn -0.7129 0.2057 -0.6704
vn 0.3783 -0.0929 -0.9210
vn 0.6117 -0.1525 -0.7762
vn 0.6568 -0.2270 -0.7191
vn 0.5976 -0.4360 -0.6729
vn 0.4308 -0.4847 -0.7612
vn 0.7747 -0.6319 -0.0238
vn 0.7556 -0.5867 0.2913
vn 0.6696 -0.3940 0.6296
vn 0.4636 -0.0760 0.8828
vn 0.0008 -1.0000 0.0007
vn -0.0151 -0.9998 0.0143
vn -0.0002 -1.0000 0.0002
vn 0.2623 0.5429 -0.7977
vn 0.1632 0.3406 -0.9259
vn -0.0321 0.6460 -0.7626
vn 0.0125 0.4291 0.9032
vn -0.7201 0.2527 -0.6462
vn -0.7291 0.5819 -0.3603
vn 0.1982 0.6547 -0.7294
vn -0.0034 0.6704 -0.7419
vn -0.0089 -1.0000 -0.0015
vn -0.4963 -0.0904 -0.8634
vn 0.0971 -0.5375 -0.8376
vn -0.0759 -0.4305 -0.8994
vn -0.1598 -0.3496 -0.9232
vn 0.9026 0.4275 -0.0497
vn 0.9871 -0.1534 -0.0454
vn -0.6505 0.3229 -0.6875
vn -0.6046 0.4669 -0.6453
vn -0.4106 0.5459 -0.7304
vn 0.5478 0.8354 -0.0448
vn 0.5433 -0.7285 -0.4173
vn 0.0003 -1.0000 -0.0003
vn 0.7224 0.6640 -0.1931
vn 0.9985 0.0436 -0.0339
vn 0.9915 0.1213 -0.0474
vn 0.9488 0.3141 -0.0328
vn 0.3128 0.1080 0.9437
vn 0.3919 0.0143 0.9199
vn -0.8314 0.5066 0.2282
vn -0.7959 0.5487 0.2560
vn 0.0660 0.9972 -0.0355
vn 0.0316 0.4160 0.9088
vn 0.9757 0.1159 -0.1859
vn -0.5093 0.8282 -0.2337
vn -0.2370 0.6919 -0.6820
vn -0.3894 0.5968 -0.7016
vn 0.7310 0.6808 -0.0452
vn 0.6153 0.7875 -0.0363
vn 0.1964 0.2592 0.9457
vn -0.3801 0.0493 -0.9236
vn -0.8126 0.1795 -0.5545
vn -0.1583 -0.0557 -0.9858
vn -0.1519 0.0004 -0.9884
vn 0.0260 0.1112 -0.9935
vn 0.1631 0.0307 -0.9861
vn -0.3962 0.6694 0.6285
vn -0.4540 0.5506 0.7005
vn -0.1917 0.5639 0.8033
vn -0.9566 0.2128 -0.1991
vn -0.0194 0.0507 0.9985
vn -0.0002 -1.0000 0.0015
vn -0.0003 -1.0000 0.0010
vn -1.0000 0.0097 -0.0018
vn -0.9888 0.0699 0.1320
vn -0.6169 0.4290 0.6598
vn -0.8160 0.2358 0.5277
vn -0.7222 0.1589 0.6732
vn -0.9526 0.0319 -0.3024
vn -0.9819 0.0663 -0.1771
vn -0.9267 0.1435 -0.3474
vn -0.8815 0.0778 -0.4656
vn 0.0320 -0.1834 -0.9825
vn 0.1236 -0.1223 -0.9848
vn 0.2770 -0.2178 -0.9359
vn 0.2611 -0.2916 -0.9202
vn 0.0652 -0.3647 -0.9288
vn 0.0117 -0.3323 -0.9431
vn 0.5059 0.3490 -0.7889
vn -0.9871 0.0686 0.1445
vn 0.9360 0.2557 -0.2419
vn 0.8930 0.0764 -0.4435
vn 0.6889 0.0646 -0.7220
vn 0.6232 0.1360 -0.7702
vn 0.6215 0.2124 -0.7541
vn 0.5731 0.7328 -0.3668
vn 0.5109 0.3823 -0.7699
vn 0.4023 0.5343 -0.7434
vn 0.9773 -0.2084 -0.0371
vn 0.4870 -0.1031 0.8673
vn 0.6268 -0.3059 0.7166
vn -0.7935 0.0291 -0.6079
vn -0.8558 0.0751 -0.5119
vn -0.8013 0.1351 -0.5829
vn -0.6855 0.1327 -0.7159
vn -0.6575 0.0853 -0.7486
vn -0.6486 0.0689 -0.7580
vn -0.6210 0.7729 0.1300
vn -0.4105 0.6779 0.6098
vn -0.3897 -0.1636 -0.9063
vn -0.3579 -0.0921 -0.9292
vn -0.2120 -0.0971 -0.9724
vn -0.2250 -0.2967 -0.9281
vn -0.7717 0.0425 0.6346
vn -0.7529 0.0553 0.6558
vn -0.7701 0.1318 0.6242
vn -0.8959 0.0499 0.4414
vn -0.0897 0.9950 -0.0431
vn -0.1006 0.9939 -0.0454
vn -0.3168 0.9478 -0.0363
vn -0.1909 0.5635 0.8037
vn -0.0426 0.4721 0.8805
vn -0.2427 0.1171 0.9630
vn -0.4210 0.1512 0.8944
vn -0.2397 0.4871 0.8398
vn -0.3858 0.4165 0.8232
vn -0.4247 0.2161 0.8791
vn -0.8590 0.4768 -0.1867
vn -0.9242 0.3557 -0.1388
vn -0.9428 0.3293 0.0528
vn -0.8650 0.4831 0.1357
vn 0.7102 -0.6779 -0.1898
vn 0.6959 -0.6861 -0.2122
vn 0.6738 -0.6949 -0.2511
vn 0.7294 -0.5388 -0.4214
vn -0.9788 0.1731 -0.1096
vn -0.9787 0.1175 -0.1681
vn -0.9828 0.1043 -0.1521
vn -0.9914 0.0963 0.0881
vn -0.9762 0.1776 0.1243
vn -0.9777 0.1860 0.0971
vn -0.1381 0.2287 0.9637
vn -0.1924 0.2050 0.9597
vn -0.2034 0.1376 0.9694
vn 0.0576 0.1373 0.9889
vn 0.0970 0.1746 0.9798
vn -0.0593 0.2369 0.9697
vn -0.9014 0.0413 0.4311
vn -0.9683 0.0143 0.2496
vn -0.0013 -1.0000 -0.0000
vn -0.0103 -0.9999 0.0091
vn -0.2289 0.9160 -0.3294
vn -0.2690 0.9349 -0.2316
vn -0.1025 0.9803 -0.1688
vn 0.0847 0.9675 -0.2384
vn -0.0078 0.9185 -0.3954
vn 0.5267 0.8264 -0.1991
vn 0.5710 0.7879 -0.2305
vn 0.5576 0.7663 -0.3191
vn 0.3110 0.8689 -0.3851
vn -0.8471 0.1931 -0.4950
vn -0.9067 0.1880 -0.3775
vn -0.9086 0.1913 -0.3712
vn -0.8314 0.4641 -0.3056
vn -0.7386 0.5472 -0.3938
vn -0.7454 0.3828 -0.5458
vn 0.3647 0.9103 -0.1959
vn 0.2618 0.9346 -0.2406
vn 0.1702 0.9603 -0.2210
vn 0.1792 0.9827 -0.0463
vn 0.2801 0.2250 -0.9333
vn 0.3136 0.2141 -0.9251
vn 0.3794 0.0830 -0.9215
vn 0.3554 -0.0003 -0.9347
vn 0.1815 0.0387 -0.9826
vn 0.9514 -0.0210 -0.3072
vn 0.9735 -0.0206 -0.2279
vn 0.9716 -0.1477 -0.1849
vn 0.9156 -0.3299 -0.2298
vn 0.8791 -0.2418 -0.4107
vn 0.7340 0.5535 -0.3936
vn 0.7290 0.5895 -0.3479
vn 0.7607 0.6090 -0.2246
vn 0.8874 0.4228 -0.1838
vn 0.9130 0.3294 -0.2408
vn 0.8602 0.3738 -0.3469
vn -0.3519 0.9351 -0.0420
vn -0.3347 0.9183 -0.2113
vn -0.4972 0.8375 -0.2267
vn -0.5273 0.8486 -0.0434
vn -0.4967 0.8670 -0.0391
vn -0.1910 0.0630 0.9796
vn -0.2400 0.0914 0.9665
vn -0.2919 -0.0326 0.9559
vn 0.3614 0.9314 -0.0436
vn 0.2772 0.9601 -0.0372
vn 0.1001 0.3610 0.9272
vn 0.1561 0.3062 0.9391
vn 0.4454 0.8946 -0.0358
vn 0.0130 0.1719 -0.9850
vn -0.1088 0.3107 -0.9443
vn -0.0168 0.3806 -0.9246
vn 0.1508 0.3408 -0.9280
vn -0.7734 0.5580 0.3009
vn -0.7750 0.3434 0.5306
vn -0.6686 0.4481 0.5934
vn 0.8379 -0.5088 -0.1974
vn 0.8587 -0.4609 -0.2240
vn 0.9087 -0.3533 -0.2222
vn 0.9368 -0.3473 -0.0425
vn 0.9047 -0.4247 -0.0335
vn 0.8502 -0.5245 -0.0448
vn -0.8685 0.2080 0.4500
vn -0.9237 0.2277 0.3080
vn -0.9576 0.1820 0.2234
vn 0.0830 0.0789 0.9934
vn 0.0794 0.0755 0.9940
vn 0.2321 0.0108 0.9726
vn 0.3620 0.0457 0.9311
vn 0.3180 0.0999 0.9428
vn -0.8007 0.5864 -0.1225
vn -0.7981 0.6019 -0.0272
vn -0.6284 0.7764 0.0490
vn -0.6275 0.7776 -0.0396
vn -0.6764 0.7162 -0.1722
vn -0.4770 0.7107 0.5172
vn -0.5704 0.7530 0.3280
vn -0.6719 0.6398 0.3731
vn -0.6314 0.5963 0.4957
vn -0.8512 0.1312 0.5083
vn -0.8814 0.1534 0.4468
vn -0.9342 0.1432 0.3269
vn -0.9442 0.1006 0.3138
vn -0.9002 0.0673 0.4302
vn 0.7554 0.6541 -0.0391
vn 0.2335 0.2070 0.9501
vn 0.2416 0.1935 0.9509
vn 0.2763 0.1551 0.9485
vn 0.8558 0.5161 -0.0366
vn -0.2120 0.0881 -0.9733
vn -0.3420 0.1210 -0.9319
vn -0.3418 0.1679 -0.9247
vn -0.2314 0.3024 -0.9247
vn -0.1619 0.2971 -0.9410
vn -0.6175 0.2216 0.7547
vn -0.7179 0.1594 0.6777
vn -0.6220 0.1323 0.7718
vn -0.4516 0.1783 0.8742
vn -0.4480 0.2018 0.8709
vn -0.5939 0.1002 0.7983
vn -0.6324 0.0570 0.7725
vn -0.5791 0.0257 0.8148
vn -0.4390 0.0563 0.8967
vn -0.4329 0.0640 0.8992
vn -0.4845 0.0996 0.8691
usemtl None
s off
f 1//1 2//1 3//1
f 1//2 3//2 4//2
f 1//2 4//2 5//2
f 1//2 5//2 6//2
f 7//3 8//3 9//3
f 10//4 11//4 12//4
f 13//5 12//5 11//5
f 6//6 14//6 10//6
f 6//7 10//7 12//7
f 6//8 15//8 16//8
f 17//9 18//9 2//9
f 19//10 20//10 21//10
f 22//11 23//11 24//11
f 22//12 24//12 25//12
f 22//13 25//13 26//13
f 22//14 26//14 13//14
f 22//15 13//15 11//15
f 3//16 2//16 18//16
f 3//17 18//17 4//17
f 27//18 4//18 18//18
f 27//19 28//19 5//19
f 27//20 5//20 4//20
f 29//21 30//21 31//21
f 29//22 6//22 5//22
f 32//23 33//23 34//23
f 32//24 34//24 35//24
f 32//25 36//25 37//25
f 38//26 39//26 40//26
f 41//27 20//27 19//27
f 41//28 8//28 7//28
f 42//29 33//29 32//29
f 42//30 32//30 37//30
f 43//31 16//31 15//31
f 44//32 14//32 6//32
f 45//33 11//33 10//33
f 45//34 10//34 14//34
f 45//35 14//35 46//35
f 47//36 48//36 49//36
f 50//37 51//37 28//37
f 52//38 20//38 41//38
f 52//39 41//39 7//39
f 52//40 7//40 36//40
f 53//41 54//41 55//41
f 1//42 12//42 13//42
f 1//43 6//43 12//43
f 56//44 55//44 47//44
f 57//45 28//45 51//45
f 57//46 51//46 49//46
f 57//47 49//47 48//47
f 57//48 48//48 58//48
f 57//49 5//49 28//49
f 59//50 60//50 61//50
f 59//51 61//51 62//51
f 63//52 64//52 39//52
f 63//53 39//53 38//53
f 65//54 49//54 51//54
f 66//55 7//55 9//55
f 66//56 37//56 36//56
f 66//57 36//57 7//57
f 67//58 47//58 55//58
f 67//59 55//59 54//59
f 67//60 54//60 38//60
f 68//61 44//61 20//61
f 69//62 19//62 21//62
f 70//63 46//63 68//63
f 70//64 68//64 71//64
f 70//65 71//65 35//65
f 70//66 35//66 23//66
f 72//67 73//67 74//67
f 72//68 74//68 75//68
f 72//69 40//69 73//69
f 76//70 77//70 78//70
f 79//71 80//71 81//71
f 81//72 29//72 5//72
f 81//73 5//73 79//73
f 82//74 43//74 15//74
f 82//75 15//75 83//75
f 84//76 75//76 74//76
f 84//77 61//77 85//77
f 84//78 85//78 86//78
f 87//79 16//79 43//79
f 87//80 43//80 82//80
f 87//81 77//81 69//81
f 87//82 69//82 16//82
f 88//83 46//83 70//83
f 88//84 70//84 23//84
f 88//85 23//85 22//85
f 88//86 22//86 11//86
f 88//87 11//87 45//87
f 88//88 45//88 46//88
f 89//89 34//89 90//89
f 91//90 83//90 15//90
f 92//91 49//91 65//91
f 92//92 65//92 25//92
f 92//93 25//93 24//93
f 92//94 24//94 89//94
f 92//95 89//95 90//95
f 93//96 33//96 56//96
f 93//97 90//97 34//97
f 93//98 34//98 33//98
f 94//99 50//99 28//99
f 94//100 28//100 27//100
f 94//101 27//101 18//101
f 95//102 6//102 16//102
f 95//103 16//103 69//103
f 95//104 69//104 21//104
f 95//105 21//105 20//105
f 95//106 20//106 44//106
f 95//107 44//107 6//107
f 96//108 59//108 62//108
f 96//109 74//109 73//109
f 97//110 14//110 44//110
f 97//111 44//111 68//111
f 97//112 68//112 46//112
f 97//113 46//113 14//113
f 98//114 31//114 30//114
f 98//115 30//115 86//115
f 98//116 86//116 85//116
f 98//117 91//117 31//117
f 99//118 39//118 64//118
f 99//119 64//119 100//119
f 99//120 100//120 73//120
f 99//121 73//121 40//121
f 99//122 40//122 39//122
f 101//123 80//123 102//123
f 101//124 102//124 103//124
f 104//125 40//125 72//125
f 104//126 72//126 75//126
f 104//127 75//127 102//127
f 105//128 8//128 76//128
f 105//129 76//129 78//129
f 105//130 78//130 60//130
f 105//131 60//131 59//131
f 106//132 17//132 2//132
f 106//133 2//133 1//133
f 106//134 1//134 13//134
f 106//135 13//135 26//135
f 107//136 78//136 77//136
f 107//137 77//137 87//137
f 107//138 87//138 82//138
f 107//139 82//139 83//139
f 107//140 83//140 60//140
f 107//141 60//141 78//141
f 108//142 40//142 104//142
f 108//143 104//143 102//143
f 108//144 102//144 80//144
f 108//145 80//145 58//145
f 108//146 58//146 38//146
f 108//147 38//147 40//147
f 109//148 31//148 91//148
f 109//149 91//149 15//149
f 109//150 15//150 6//150
f 109//22 6//22 29//22
f 109//151 29//151 31//151
f 110//152 37//152 66//152
f 110//153 66//153 100//153
f 110//154 100//154 64//154
f 110//155 64//155 42//155
f 110//156 42//156 37//156
f 111//157 53//157 55//157
f 111//158 55//158 56//158
f 111//159 56//159 33//159
f 111//160 33//160 42//160
f 112//161 19//161 69//161
f 112//162 69//162 77//162
f 112//163 77//163 76//163
f 112//164 76//164 8//164
f 112//165 8//165 41//165
f 112//166 41//166 19//166
f 113//167 53//167 111//167
f 113//168 111//168 42//168
f 113//169 42//169 64//169
f 113//170 64//170 63//170
f 114//171 35//171 34//171
f 114//172 34//172 89//172
f 114//173 89//173 24//173
f 114//174 24//174 23//174
f 114//175 23//175 35//175
f 115//176 25//176 65//176
f 115//177 65//177 51//177
f 115//178 51//178 50//178
f 115//179 50//179 26//179
f 115//180 26//180 25//180
f 116//181 90//181 93//181
f 116//182 93//182 56//182
f 116//183 56//183 47//183
f 116//184 47//184 49//184
f 116//185 49//185 92//185
f 116//186 92//186 90//186
f 117//187 73//187 100//187
f 117//188 100//188 66//188
f 117//189 66//189 9//189
f 117//190 9//190 96//190
f 117//191 96//191 73//191
f 118//192 81//192 80//192
f 118//193 80//193 101//193
f 118//194 29//194 81//194
f 119//195 53//195 113//195
f 119//196 113//196 63//196
f 119//197 63//197 38//197
f 119//198 38//198 54//198
f 119//199 54//199 53//199
f 120//200 35//200 71//200
f 120//201 71//201 36//201
f 120//202 36//202 32//202
f 120//203 32//203 35//203
f 121//204 62//204 61//204
f 121//205 61//205 84//205
f 121//206 84//206 74//206
f 122//207 17//207 106//207
f 122//208 106//208 26//208
f 122//209 26//209 50//209
f 122//210 50//210 94//210
f 122//211 94//211 18//211
f 122//212 18//212 17//212
f 123//213 85//213 61//213
f 123//214 61//214 60//214
f 123//215 60//215 83//215
f 124//216 58//216 80//216
f 124//217 80//217 79//217
f 124//218 79//218 5//218
f 124//219 5//219 57//219
f 124//220 57//220 58//220
f 125//221 8//221 105//221
f 125//222 105//222 59//222
f 125//223 59//223 96//223
f 125//224 96//224 9//224
f 125//225 9//225 8//225
f 126//226 74//226 96//226
f 126//227 96//227 62//227
f 126//228 62//228 121//228
f 126//229 121//229 74//229
f 127//230 98//230 85//230
f 127//231 85//231 123//231
f 127//232 123//232 83//232
f 127//233 83//233 91//233
f 127//234 91//234 98//234
f 128//235 47//235 67//235
f 128//236 67//236 38//236
f 128//237 38//237 58//237
f 128//238 58//238 48//238
f 128//239 48//239 47//239
f 129//240 71//240 68//240
f 129//241 68//241 20//241
f 129//242 20//242 52//242
f 129//243 52//243 36//243
f 129//244 36//244 71//244
f 130//245 75//245 84//245
f 130//246 84//246 86//246
f 130//247 86//247 103//247
f 130//248 103//248 102//248
f 130//249 102//249 75//249
f 131//250 103//250 86//250
f 131//251 86//251 30//251
f 131//252 30//252 29//252
f 131//253 29//253 118//253
f 131//254 118//254 101//254
f 131//255 101//255 103//255
