# Blender v2.93.6 OBJ File: ''
# www.blender.org
mtllib link4_convex.mtl
o link4.obj.convex
v -0.054846 -0.047960 -0.124009
v -0.109295 0.048487 -0.124003
v -0.092249 0.054293 -0.124000
v -0.072380 0.054529 -0.123999
v -0.051380 0.045753 -0.123999
v -0.033068 0.025663 -0.123999
v -0.027700 0.006122 -0.124000
v -0.037091 -0.031832 -0.123998
v -0.028172 -0.010519 -0.124000
v 0.045213 0.001119 -0.031664
v 0.031774 0.091676 -0.033860
v 0.050405 0.000627 0.022856
v 0.055140 0.000579 0.002814
v 0.050572 0.066511 0.014743
v -0.120676 0.003086 -0.026656
v -0.031671 0.000873 0.045195
v -0.031992 0.066830 0.041577
v -0.032778 0.090005 0.033914
v -0.017654 0.090834 0.043502
v -0.016175 0.100932 0.033271
v -0.028743 0.100935 0.023039
v -0.013322 0.108975 0.009890
v 0.037985 0.065264 0.036488
v 0.026427 0.065717 0.045716
v 0.034066 0.000539 0.043607
v 0.042435 0.092196 -0.018317
v 0.032520 0.100966 -0.017150
v 0.048049 0.087399 -0.003292
v 0.048737 0.065666 -0.020431
v -0.118237 -0.018545 -0.028972
v -0.107874 -0.032339 -0.030200
v 0.052877 0.064928 -0.001839
v 0.054350 0.000642 -0.010373
v 0.009153 0.065466 0.052080
v 0.005715 0.086143 0.048166
v -0.007343 0.066949 0.052124
v -0.068970 -0.051781 -0.088499
v -0.127336 0.006009 -0.038252
v -0.126198 -0.009207 -0.036393
v -0.005765 0.108100 -0.018216
v 0.002049 0.100790 -0.037664
v 0.021827 0.100929 -0.029940
v 0.007130 0.093041 0.045217
v 0.022569 0.093692 0.039557
v 0.013431 0.100980 0.034342
v 0.041340 0.066298 -0.032356
v -0.087198 -0.052439 -0.079611
v -0.105004 -0.046745 -0.073322
v -0.094255 -0.053490 -0.106407
v -0.118012 -0.027166 -0.036774
v -0.015165 0.108663 -0.009109
v -0.037027 0.100844 -0.002744
v -0.041858 0.089692 0.020943
v -0.121548 0.022252 -0.037507
v 0.045633 0.092929 -0.004568
v 0.007716 0.108234 -0.017187
v 0.019177 0.108031 -0.001568
v 0.027804 0.100943 0.024311
v 0.034986 0.093760 0.029175
v 0.043362 0.093861 0.013919
v 0.035207 0.100914 0.010845
v -0.103567 -0.051060 -0.123994
v -0.074238 -0.054580 -0.123996
v -0.086144 -0.055207 -0.123968
v -0.125335 -0.034670 -0.124000
v -0.113556 -0.045728 -0.123983
v -0.121956 -0.037873 -0.102260
v -0.129765 -0.027672 -0.106224
v -0.132118 -0.024018 -0.123998
v -0.134661 0.018168 -0.123981
v -0.129377 0.027186 -0.095919
v -0.129090 0.029796 -0.123972
v -0.137607 0.003240 -0.123998
v -0.136445 -0.011417 -0.123998
v -0.135538 -0.011731 -0.097306
v -0.034936 0.100886 0.012055
v -0.022347 0.066152 0.047624
v -0.010681 0.000562 0.054289
v -0.001304 0.100922 0.036786
v -0.120391 0.040330 -0.123968
v -0.095079 -0.039772 -0.030948
v -0.105467 -0.040228 -0.042327
v -0.095913 -0.043246 -0.038365
v -0.006624 0.091497 0.046218
v 0.036704 0.100953 -0.003599
v 0.043599 0.087046 0.020237
v -0.132852 0.017568 -0.085270
v 0.045445 0.065418 0.026708
v 0.004073 0.000623 0.055150
v 0.014950 0.000568 0.053137
v -0.076570 -0.045276 -0.039825
v 0.029027 0.084777 0.039266
v 0.043896 0.000521 0.033551
v -0.004346 0.111052 -0.002963
v 0.003797 0.110758 0.007079
v -0.121732 0.014315 -0.031247
v -0.004802 0.108757 0.016582
v 0.038328 0.085636 -0.029774
v -0.119318 0.028643 -0.043544
v -0.122010 0.033735 -0.074521
v 0.018624 0.086920 0.044366
v 0.050232 0.000568 -0.023144
v 0.047475 0.086165 0.009573
v -0.127220 0.023866 -0.065177
v -0.130713 -0.013270 -0.061180
v -0.134277 -0.004290 -0.074340
v 0.008852 0.110543 -0.002476
v 0.016564 0.108349 0.007618
v -0.112995 -0.039425 -0.060261
v -0.123590 -0.021113 -0.042113
v -0.127128 -0.023886 -0.064748
v -0.119562 -0.031530 -0.054034
v -0.135274 0.006179 -0.084244
v -0.132355 0.007006 -0.063413
v -0.120488 -0.009549 -0.027673
v -0.086007 -0.044819 -0.037573
v -0.023522 0.000617 0.049968
v -0.073458 -0.050559 -0.069480
v 0.038719 0.084476 0.029881
v -0.114429 -0.042990 -0.087759
v -0.124401 -0.032557 -0.082466
v 0.012946 0.107815 0.015115
v -0.128322 0.015393 -0.052420
v 0.022579 0.000558 0.050414
v -0.130818 -0.001483 -0.052212
v -0.136806 -0.003694 -0.098993
v -0.093721 -0.047253 -0.053071
v -0.131688 -0.020824 -0.087091
v -0.063776 -0.051501 -0.107927
v -0.122193 0.036894 -0.095532
v -0.113825 -0.032764 -0.038682
v -0.082402 -0.053905 -0.092920
v -0.032575 0.100906 -0.017421
vn 0.0001 0.0001 -1.0000
vn 0.0000 0.0001 -1.0000
vn 0.0002 0.0001 -1.0000
vn 0.7612 -0.3186 -0.5648
vn 0.5161 0.4704 -0.7158
vn 0.9729 0.0258 0.2298
vn -0.6270 0.0396 0.7780
vn -0.6858 0.2074 0.6976
vn -0.4210 0.6752 0.6057
vn -0.5281 0.2504 0.8114
vn -0.4453 0.7087 0.5472
vn -0.2360 0.9274 0.2902
vn 0.6244 0.0480 0.7797
vn 0.5740 0.7045 -0.4173
vn 0.9316 0.2429 -0.2706
vn -0.5187 -0.4542 0.7243
vn 0.9901 0.0445 0.1334
vn 0.9594 0.1928 -0.2060
vn 0.9753 0.0509 -0.2152
vn 0.9977 0.0308 -0.0596
vn 0.4325 -0.9011 -0.0302
vn 0.0196 0.1891 0.9818
vn 0.3358 -0.9384 0.0816
vn -0.8676 -0.0041 0.4972
vn -0.0999 0.9175 -0.3850
vn -0.0105 0.8851 -0.4652
vn 0.5162 0.7386 -0.4337
vn 0.3534 0.6605 -0.6625
vn 0.2950 0.7060 -0.6438
vn 0.2317 0.7601 -0.6071
vn 0.2085 0.7284 0.6526
vn 0.8500 0.0449 -0.5249
vn -0.2680 -0.9573 0.1081
vn -0.6351 -0.5274 0.5644
vn -0.3324 0.9430 0.0168
vn -0.2248 0.9304 -0.2895
vn -0.6276 0.6532 0.4236
vn -0.7422 0.4358 0.5091
vn 0.9101 0.3445 -0.2301
vn 0.7166 0.1969 -0.6691
vn 0.7852 0.0401 -0.6179
vn 0.7840 -0.0222 -0.6203
vn 0.0011 -0.0005 -1.0000
vn 0.0004 -0.0000 -1.0000
vn 0.2763 0.9420 -0.1905
vn 0.2739 0.9335 -0.2316
vn 0.1388 0.9178 -0.3721
vn 0.0171 0.9382 -0.3458
vn 0.5582 0.7690 0.3115
vn 0.5553 0.7743 0.3036
vn 0.3493 0.7940 0.4976
vn 0.4165 0.7572 0.5032
vn -0.0002 -0.0013 -1.0000
vn -0.0017 -0.0135 -0.9999
vn -0.2315 -0.9728 -0.0118
vn -0.3708 -0.9262 0.0683
vn -0.6845 -0.7291 -0.0010
vn -0.8003 -0.5985 0.0362
vn -0.8435 -0.5371 0.0013
vn -0.0003 -0.0007 -1.0000
vn -0.0044 -0.0061 -1.0000
vn -0.9014 0.4319 0.0309
vn -0.0042 0.0028 -1.0000
vn -0.0029 0.0017 -1.0000
vn -0.9454 -0.3246 0.0283
vn -0.0002 -0.0000 -1.0000
vn -0.0001 -0.0000 -1.0000
vn -0.0006 -0.0002 -1.0000
vn -0.6401 0.6799 0.3578
vn -0.3287 0.9269 0.1811
vn -0.3461 0.9371 0.0463
vn -0.2892 0.0457 0.9562
vn -0.2910 0.2112 0.9331
vn -0.5045 0.2347 0.8309
vn -0.5285 0.0439 0.8478
vn 0.1004 0.7750 0.6239
vn -0.5923 0.8057 0.0051
vn -0.0088 0.0076 -0.9999
vn -0.4350 -0.7918 0.4288
vn -0.4277 -0.7992 0.4224
vn 0.0233 0.3889 0.9210
vn -0.0295 0.7153 0.6982
vn -0.1540 0.7410 0.6536
vn -0.2082 0.7110 0.6717
vn -0.2457 0.2335 0.9408
vn -0.0513 0.2350 0.9706
vn 0.6378 0.7672 0.0682
vn 0.6704 0.7406 0.0450
vn 0.6449 0.7404 -0.1895
vn 0.6367 0.7458 -0.1959
vn 0.3611 0.9260 -0.1106
vn 0.3782 0.9248 0.0417
vn 0.7894 0.4319 0.4362
vn -0.9208 0.3870 0.0490
vn 0.8946 0.1964 0.4013
vn 0.9166 0.0466 0.3970
vn 0.1820 0.0323 0.9828
vn 0.0069 0.0468 0.9989
vn -0.0584 0.0355 0.9977
vn 0.0671 -0.9195 0.3874
vn 0.6185 0.1749 0.7661
vn 0.5861 0.4016 0.7037
vn 0.8536 0.0344 0.5199
vn 0.7939 0.0450 0.6063
vn 0.7147 0.0336 0.6986
vn 0.2254 -0.9486 0.2221
vn -0.1144 0.9773 -0.1785
vn -0.2184 0.9758 0.0052
vn -0.0869 0.9912 0.0995
vn 0.0048 0.9817 -0.1904
vn -0.8861 0.2995 0.3537
vn -0.8447 0.1326 0.5185
vn -0.6903 0.2172 0.6901
vn -0.7418 0.4258 0.5181
vn -0.2081 0.9325 0.2953
vn -0.0876 0.9236 0.3733
vn 0.0548 0.9341 0.3528
vn -0.0807 0.9876 0.1349
vn 0.8619 0.2403 -0.4466
vn 0.8376 0.1984 -0.5091
vn 0.7151 0.2008 -0.6696
vn 0.6765 0.2707 -0.6849
vn 0.7317 0.4444 -0.5168
vn -0.7403 0.5798 0.3403
vn -0.7200 0.6462 0.2530
vn -0.7042 0.6883 0.1744
vn 0.4660 0.2259 0.8555
vn 0.4693 0.3130 0.8257
vn 0.2940 0.4337 0.8518
vn 0.2470 0.3376 0.9083
vn 0.2631 0.2215 0.9390
vn 0.3375 0.1830 0.9234
vn 0.9511 0.0346 -0.3068
vn 0.5432 -0.8221 -0.1704
vn 0.6358 -0.6997 -0.3257
vn 0.7221 -0.5178 -0.4588
vn 0.8620 0.0409 -0.5052
vn 0.9065 0.4145 0.0802
vn 0.8984 0.4301 0.0887
vn 0.9012 0.3112 0.3018
vn 0.9209 0.2282 0.3159
vn 0.9757 0.1848 0.1180
vn 0.9748 0.2136 0.0640
vn -0.8492 0.4876 0.2025
vn -0.7995 0.5777 0.1645
vn -0.8281 0.5482 0.1173
vn -0.8895 0.4435 0.1103
vn -0.9706 -0.2082 0.1208
vn 0.0439 0.9864 -0.1582
vn 0.0387 0.9993 -0.0021
vn 0.2470 0.9542 -0.1688
vn 0.3367 0.9236 0.1831
vn 0.3591 0.9307 0.0699
vn 0.2336 0.9718 0.0327
vn 0.1819 0.9805 0.0741
vn -0.4986 -0.8498 0.1712
vn -0.9258 -0.3081 0.2191
vn -0.9098 -0.3703 0.1876
vn -0.8196 -0.5391 0.1941
vn -0.8048 -0.5543 0.2124
vn -0.8217 -0.3941 0.4117
vn -0.8287 -0.3793 0.4117
vn -0.9678 0.2172 0.1270
vn -0.9761 0.2119 0.0489
vn -0.9802 0.1933 0.0432
vn -0.9899 0.0356 0.1373
vn -0.8088 -0.2773 0.5187
vn -0.5944 -0.2587 0.7615
vn -0.6276 -0.0717 0.7752
vn -0.8363 -0.0563 0.5454
vn 0.0510 -0.9155 0.3991
vn -0.0230 -0.8887 0.4579
vn -0.1046 -0.8549 0.5081
vn -0.1750 -0.8839 0.4337
vn -0.0050 -0.9839 0.1785
vn -0.3185 0.0396 0.9471
vn -0.5041 0.0399 0.8627
vn -0.4207 -0.5931 0.6865
vn -0.3535 -0.6738 0.6489
vn -0.1955 -0.7974 0.5709
vn 0.0050 -0.9844 0.1759
vn 0.2942 -0.9468 0.1302
vn 0.2745 -0.9486 0.1576
vn 0.2427 -0.9504 0.1948
vn 0.7813 0.1760 0.5988
vn 0.8463 0.2177 0.4862
vn 0.7921 0.3562 0.4957
vn 0.6645 0.3186 0.6760
vn 0.6829 0.2141 0.6984
vn -0.5393 -0.8311 0.1359
vn -0.6187 -0.7844 0.0444
vn -0.4701 -0.8809 0.0553
vn -0.4512 -0.8902 0.0630
vn -0.8037 -0.5920 0.0597
vn -0.6912 -0.7148 0.1066
vn -0.6834 -0.7186 0.1288
vn -0.7016 -0.6977 0.1446
vn -0.8033 -0.5744 0.1575
vn 0.2265 0.9195 0.3212
vn 0.2998 0.9304 0.2110
vn 0.1769 0.9720 0.1546
vn 0.0732 0.9605 0.2685
vn 0.0773 0.9400 0.3322
vn -0.9108 0.3122 0.2702
vn -0.8819 0.4242 0.2055
vn -0.9256 0.3472 0.1506
vn -0.9532 0.2632 0.1489
vn -0.9593 0.2000 0.1993
vn 0.3447 0.0472 0.9375
vn 0.3358 0.0453 0.9408
vn 0.1205 -0.9323 0.3411
vn 0.1707 -0.9415 0.2906
vn 0.5096 0.0319 0.8598
vn -0.9765 0.0847 0.1981
vn -0.9882 0.0214 0.1518
vn -0.9757 -0.1380 0.1700
vn -0.9657 -0.1627 0.2026
vn -0.9642 -0.0401 0.2620
vn -0.9860 -0.1350 0.0979
vn -0.9948 0.0018 0.1021
vn -0.9957 0.0755 0.0528
vn -0.9968 -0.0790 0.0100
vn -0.9883 -0.1492 0.0318
vn -0.2628 -0.9570 0.1224
vn -0.0507 -0.9824 0.1795
vn -0.1708 -0.9568 0.2352
vn -0.3675 -0.9098 0.1931
vn -0.3738 -0.9088 0.1855
vn -0.8618 -0.4989 0.0919
vn -0.8631 -0.4932 0.1086
vn -0.9231 -0.3585 0.1393
vn -0.9547 -0.2741 0.1158
vn -0.9359 -0.3500 0.0412
vn -0.9232 -0.3817 0.0438
vn 0.3902 -0.9206 0.0139
vn 0.3389 -0.9377 0.0771
vn 0.2186 -0.9748 0.0444
vn 0.3229 -0.9460 -0.0290
vn -0.6760 0.7279 0.1153
vn -0.6596 0.7461 0.0911
vn -0.6357 0.7701 0.0528
vn -0.7708 0.6365 0.0281
vn -0.8038 0.5930 0.0469
vn -0.8020 0.5897 0.0956
vn -0.6733 -0.7133 0.1943
vn -0.5964 -0.7732 0.2157
vn -0.5096 -0.7640 0.3958
vn -0.6233 -0.6259 0.4687
vn -0.7415 -0.6316 0.2263
vn 0.1256 -0.9877 0.0931
vn 0.0436 -0.9912 0.1249
vn -0.1127 -0.9913 0.0685
vn -0.0953 -0.9940 0.0532
vn 0.0526 -0.9980 0.0355
vn 0.1374 -0.9888 0.0576
vn -0.3621 0.9261 -0.1059
vn -0.2987 0.9244 -0.2371
vn -0.3139 0.9218 -0.2274
vn -0.4327 0.8925 -0.1275
usemtl None
s off
f 1//1 2//1 3//1
f 1//1 3//1 4//1
f 1//2 4//2 5//2
f 1//3 5//3 6//3
f 1//1 6//1 7//1
f 8//4 9//4 10//4
f 6//5 5//5 11//5
f 12//6 13//6 14//6
f 15//7 16//7 17//7
f 15//8 17//8 18//8
f 19//9 20//9 18//9
f 19//10 18//10 17//10
f 21//11 18//11 20//11
f 21//12 20//12 22//12
f 23//13 24//13 25//13
f 26//14 11//14 27//14
f 26//15 28//15 29//15
f 30//16 31//16 16//16
f 32//17 14//17 13//17
f 32//18 29//18 28//18
f 33//19 29//19 32//19
f 33//20 32//20 13//20
f 33//21 13//21 1//21
f 34//22 35//22 36//22
f 37//23 13//23 12//23
f 38//24 39//24 15//24
f 3//25 40//25 41//25
f 3//26 41//26 4//26
f 42//27 27//27 11//27
f 42//28 11//28 5//28
f 42//29 5//29 4//29
f 42//30 4//30 41//30
f 43//31 44//31 45//31
f 46//32 29//32 10//32
f 47//33 48//33 49//33
f 50//34 31//34 30//34
f 51//35 52//35 22//35
f 51//36 40//36 3//36
f 53//37 18//37 21//37
f 53//38 54//38 18//38
f 55//39 28//39 26//39
f 7//40 6//40 46//40
f 7//41 46//41 10//41
f 7//42 10//42 9//42
f 9//43 8//43 1//43
f 9//44 1//44 7//44
f 56//45 57//45 27//45
f 56//46 27//46 42//46
f 56//47 42//47 41//47
f 56//48 41//48 40//48
f 58//49 59//49 60//49
f 58//50 60//50 61//50
f 58//51 45//51 44//51
f 58//52 44//52 59//52
f 62//53 1//53 63//53
f 62//54 63//54 64//54
f 62//55 64//55 49//55
f 62//56 49//56 48//56
f 65//57 66//57 67//57
f 65//58 67//58 68//58
f 65//59 68//59 69//59
f 65//60 1//60 62//60
f 65//61 62//61 66//61
f 70//62 71//62 72//62
f 70//63 72//63 2//63
f 70//64 2//64 73//64
f 74//65 69//65 75//65
f 74//66 73//66 2//66
f 74//67 2//67 1//67
f 74//67 1//67 65//67
f 74//68 65//68 69//68
f 76//69 53//69 21//69
f 76//70 21//70 22//70
f 76//71 22//71 52//71
f 77//72 78//72 36//72
f 77//73 36//73 19//73
f 77//74 19//74 17//74
f 77//75 17//75 16//75
f 79//76 43//76 45//76
f 80//77 52//77 2//77
f 80//78 2//78 72//78
f 81//79 31//79 82//79
f 81//80 82//80 83//80
f 84//81 35//81 43//81
f 84//82 43//82 79//82
f 84//83 79//83 20//83
f 84//84 20//84 19//84
f 84//85 19//85 36//85
f 84//86 36//86 35//86
f 85//87 61//87 60//87
f 85//88 60//88 55//88
f 85//89 55//89 26//89
f 85//90 26//90 27//90
f 85//91 27//91 57//91
f 85//92 57//92 61//92
f 86//93 60//93 59//93
f 87//94 71//94 70//94
f 88//95 14//95 86//95
f 88//96 12//96 14//96
f 89//97 90//97 34//97
f 89//98 34//98 36//98
f 89//99 36//99 78//99
f 89//100 91//100 90//100
f 92//101 24//101 23//101
f 92//102 59//102 44//102
f 93//103 12//103 88//103
f 93//104 88//104 23//104
f 93//105 23//105 25//105
f 93//106 25//106 91//106
f 94//107 40//107 51//107
f 94//108 51//108 22//108
f 94//109 22//109 95//109
f 94//110 56//110 40//110
f 96//111 54//111 38//111
f 96//112 38//112 15//112
f 96//113 15//113 18//113
f 96//114 18//114 54//114
f 97//115 22//115 20//115
f 97//116 20//116 79//116
f 97//117 79//117 45//117
f 97//118 95//118 22//118
f 98//119 26//119 29//119
f 98//120 29//120 46//120
f 98//121 46//121 6//121
f 98//122 6//122 11//122
f 98//123 11//123 26//123
f 99//124 54//124 53//124
f 99//125 53//125 76//125
f 99//126 76//126 100//126
f 101//127 24//127 92//127
f 101//128 92//128 44//128
f 101//129 44//129 43//129
f 101//130 43//130 35//130
f 101//131 35//131 34//131
f 101//132 34//132 24//132
f 102//133 29//133 33//133
f 102//134 33//134 1//134
f 102//135 1//135 8//135
f 102//136 8//136 10//136
f 102//137 10//137 29//137
f 103//138 28//138 55//138
f 103//139 55//139 60//139
f 103//140 60//140 86//140
f 103//141 86//141 14//141
f 103//142 14//142 32//142
f 103//143 32//143 28//143
f 104//144 54//144 99//144
f 104//145 99//145 100//145
f 104//146 100//146 71//146
f 104//147 71//147 87//147
f 105//148 106//148 75//148
f 107//149 56//149 94//149
f 107//150 94//150 95//150
f 107//151 57//151 56//151
f 108//152 58//152 61//152
f 108//153 61//153 57//153
f 108//154 57//154 107//154
f 108//155 107//155 95//155
f 109//156 48//156 82//156
f 110//157 39//157 105//157
f 110//158 105//158 111//158
f 110//159 111//159 112//159
f 110//160 112//160 50//160
f 110//161 50//161 30//161
f 110//162 30//162 39//162
f 113//163 114//163 87//163
f 113//164 87//164 70//164
f 113//165 70//165 73//165
f 113//166 106//166 114//166
f 115//167 39//167 30//167
f 115//168 30//168 16//168
f 115//169 16//169 15//169
f 115//170 15//170 39//170
f 116//171 91//171 89//171
f 116//172 89//172 78//172
f 116//173 78//173 81//173
f 116//174 81//174 83//174
f 116//175 47//175 91//175
f 117//176 78//176 77//176
f 117//177 77//177 16//177
f 117//178 16//178 31//178
f 117//179 31//179 81//179
f 117//180 81//180 78//180
f 118//181 91//181 47//181
f 118//182 37//182 12//182
f 118//183 12//183 93//183
f 118//184 93//184 91//184
f 119//185 23//185 88//185
f 119//186 88//186 86//186
f 119//187 86//187 59//187
f 119//188 59//188 92//188
f 119//189 92//189 23//189
f 120//190 48//190 109//190
f 120//191 67//191 66//191
f 120//192 66//192 62//192
f 120//193 62//193 48//193
f 121//194 68//194 67//194
f 121//195 67//195 120//195
f 121//196 120//196 109//196
f 121//197 109//197 112//197
f 121//198 112//198 111//198
f 122//199 45//199 58//199
f 122//200 58//200 108//200
f 122//201 108//201 95//201
f 122//202 95//202 97//202
f 122//203 97//203 45//203
f 123//204 38//204 54//204
f 123//205 54//205 104//205
f 123//206 104//206 87//206
f 123//207 87//207 114//207
f 123//208 114//208 38//208
f 124//209 24//209 34//209
f 124//210 34//210 90//210
f 124//211 90//211 91//211
f 124//212 91//212 25//212
f 124//213 25//213 24//213
f 125//214 38//214 114//214
f 125//215 114//215 106//215
f 125//216 106//216 105//216
f 125//217 105//217 39//217
f 125//218 39//218 38//218
f 126//219 75//219 106//219
f 126//220 106//220 113//220
f 126//221 113//221 73//221
f 126//222 73//222 74//222
f 126//223 74//223 75//223
f 127//224 48//224 47//224
f 127//225 47//225 116//225
f 127//226 116//226 83//226
f 127//227 83//227 82//227
f 127//228 82//228 48//228
f 128//229 68//229 121//229
f 128//230 121//230 111//230
f 128//231 111//231 105//231
f 128//232 105//232 75//232
f 128//233 75//233 69//233
f 128//234 69//234 68//234
f 129//235 1//235 13//235
f 129//236 13//236 37//236
f 129//237 37//237 63//237
f 129//238 63//238 1//238
f 130//239 100//239 76//239
f 130//240 76//240 52//240
f 130//241 52//241 80//241
f 130//242 80//242 72//242
f 130//243 72//243 71//243
f 130//244 71//244 100//244
f 131//245 112//245 109//245
f 131//246 109//246 82//246
f 131//247 82//247 31//247
f 131//248 31//248 50//248
f 131//249 50//249 112//249
f 132//250 37//250 118//250
f 132//251 118//251 47//251
f 132//252 47//252 49//252
f 132//253 49//253 64//253
f 132//254 64//254 63//254
f 132//255 63//255 37//255
f 133//256 52//256 51//256
f 133//257 51//257 3//257
f 133//258 3//258 2//258
f 133//259 2//259 52//259
