# Blender v2.93.6 OBJ File: ''
# www.blender.org
mtllib link1_convex.mtl
o link1.obj.convex
v -0.008000 -0.192000 0.054700
v -0.026108 -0.192000 0.048685
v -0.042942 -0.191999 0.035020
v -0.053668 -0.192003 0.013207
v -0.054942 -0.192000 -0.004026
v -0.052335 -0.192000 -0.017523
v -0.045885 -0.192000 -0.030551
v -0.037875 -0.192000 -0.040031
v -0.030773 -0.192000 -0.045636
v -0.021549 -0.192000 -0.050744
v -0.012079 -0.192000 -0.053723
v -0.000355 -0.192000 -0.055192
v 0.012202 -0.192000 -0.053703
v 0.022913 -0.192000 -0.050151
v 0.034292 -0.192000 -0.043170
v 0.044789 -0.192000 -0.032345
v 0.051823 -0.192000 -0.018800
v 0.054382 -0.191997 -0.008925
v 0.055161 -0.192004 0.003628
v 0.049622 -0.191999 0.024777
v 0.037113 -0.192000 0.040731
v 0.023176 -0.192000 0.050140
v 0.007734 -0.192000 0.054573
v -0.025731 0.049162 0.000521
v -0.005730 0.054943 0.000489
v 0.000198 -0.125178 -0.054921
v 0.034727 -0.014648 0.116294
v 0.025412 -0.017632 0.120945
v -0.054768 0.007517 0.000602
v -0.054987 0.002945 0.060276
v -0.045587 -0.007254 0.107758
v 0.012128 0.053903 0.000504
v -0.001065 0.054973 0.065471
v 0.009926 0.054230 0.064837
v -0.033893 -0.012558 0.117564
v -0.042379 -0.013965 0.109673
v 0.045560 -0.123597 -0.030945
v 0.051739 -0.119399 -0.019267
v -0.042252 0.035591 0.000480
v -0.031829 0.045033 0.064068
v 0.054883 0.005949 0.000573
v 0.054953 0.003564 0.060668
v 0.037478 -0.125702 -0.040467
v 0.051877 0.018582 0.000502
v -0.022482 -0.014598 0.123341
v -0.008485 -0.020504 0.125357
v 0.004878 0.000947 0.129373
v -0.011272 0.000250 0.128513
v 0.000052 -0.014335 0.127835
v 0.046016 0.030428 0.000517
v 0.017598 -0.126655 -0.052188
v 0.008945 -0.126225 -0.054262
v 0.032229 0.045079 0.000468
v -0.020955 0.050931 0.064622
v -0.008659 0.054435 0.064251
v 0.017859 -0.016615 0.124397
v 0.007705 -0.019477 0.125795
v 0.020677 0.008339 0.125230
v 0.017385 0.017312 0.124411
v 0.004204 0.013660 0.127918
v -0.043082 0.034509 0.063860
v -0.050318 0.022466 0.000497
v -0.049317 0.024332 0.064360
v -0.041507 0.021371 0.107025
v 0.051375 0.019532 0.063873
v 0.046528 0.029295 0.064680
v 0.039319 0.024663 0.107371
v 0.042932 0.017665 0.107418
v 0.050649 0.003659 0.087687
v 0.046444 0.000104 0.107388
v -0.050133 -0.122074 -0.022744
v -0.045798 -0.123480 -0.030584
v -0.039695 -0.125178 -0.038136
v -0.033995 0.031677 0.107523
v -0.015560 -0.126596 -0.052799
v -0.025424 -0.126658 -0.048832
v 0.040514 0.008921 0.113037
v 0.034472 0.020296 0.114389
v 0.017871 -0.004769 0.126682
v 0.026663 -0.007720 0.122854
v 0.030508 0.003392 0.121220
v 0.045443 0.009659 0.107338
v 0.024036 0.049546 0.064734
v 0.032858 0.044151 0.064327
v 0.013692 0.044435 0.107199
v 0.022662 0.040512 0.107510
v -0.014551 0.044191 0.107379
v -0.004323 0.046153 0.107417
v -0.014252 0.049507 0.084755
v 0.028025 -0.126459 -0.047407
v -0.053198 0.014282 0.062031
v -0.044899 0.012099 0.107411
v -0.022892 -0.000735 0.125006
v -0.019273 0.008008 0.125821
v -0.032844 0.007786 0.119203
v -0.030923 -0.002243 0.120931
v -0.051902 0.005154 0.080543
v -0.008900 0.039611 0.113838
v 0.003266 0.043455 0.110954
v -0.046546 -0.000318 0.107219
v -0.040768 -0.003566 0.113565
v 0.003928 0.022594 0.125091
v -0.008265 0.016201 0.126733
v 0.003794 0.050524 0.089031
v 0.004312 0.046231 0.107445
v -0.028266 0.020676 0.118307
v -0.019234 0.017520 0.123633
v -0.018039 0.029566 0.118665
v 0.037484 -0.003615 0.116272
v 0.021324 0.023699 0.120405
v 0.013820 0.030524 0.119368
v 0.040594 0.037127 0.064406
v -0.015549 -0.010424 0.126569
v -0.038870 0.014468 0.112925
v 0.029307 0.013105 0.120242
v -0.053405 -0.118476 -0.013622
v 0.021620 0.030633 0.116378
v 0.033284 0.032546 0.107291
v -0.002744 0.031461 0.120577
v -0.011212 0.026151 0.122478
v -0.025502 0.030829 0.114408
v -0.024877 0.039131 0.107484
v 0.008944 -0.009181 0.128164
v 0.011679 0.039549 0.113173
v 0.045459 -0.005703 0.108458
v -0.034037 0.038941 0.083714
v -0.005769 0.007856 0.128742
v 0.042634 -0.012449 0.109893
v -0.035215 0.024391 0.111623
v -0.022960 0.046110 0.085024
v -0.033310 -0.126128 -0.043874
v 0.003911 0.034982 0.118217
v 0.032316 0.039941 0.085449
vn 0.0000 -1.0000 -0.0001
vn -0.0002 -1.0000 0.0003
vn 0.0003 -1.0000 -0.0002
vn 0.0000 -1.0000 -0.0000
vn 0.0002 -1.0000 0.0002
vn -0.0005 -1.0000 -0.0005
vn 0.0002 -1.0000 0.0003
vn -0.0855 0.2904 -0.9531
vn 0.5044 -0.3327 0.7968
vn 0.5292 -0.3251 0.7838
vn -1.0000 0.0010 -0.0036
vn -0.8821 -0.1834 0.4338
vn -0.9970 -0.0245 0.0737
vn 0.0179 0.2945 -0.9555
vn 0.0672 0.9977 -0.0053
vn 0.0581 0.9983 -0.0031
vn -0.6211 -0.3042 0.7223
vn -0.5996 -0.3079 0.7387
vn 0.8875 -0.0006 -0.4609
vn 0.8842 -0.0020 -0.4671
vn -0.6347 0.7727 -0.0107
vn 1.0000 0.0014 -0.0011
vn 0.6436 0.1489 -0.7507
vn -0.4726 -0.3336 0.8157
vn -0.2935 -0.3649 0.8836
vn -0.2825 -0.3672 0.8862
vn -0.0494 -0.0846 0.9952
vn 0.2370 0.2702 -0.9332
vn 0.2774 0.2580 -0.9255
vn -0.2742 0.9617 -0.0049
vn -0.2777 0.9607 -0.0058
vn -0.4772 0.8787 0.0113
vn 0.2291 -0.3736 0.8988
vn 0.2565 -0.3688 0.8934
vn 0.1819 0.1554 0.9710
vn 0.2233 0.1225 0.9670
vn -0.6831 0.7303 0.0035
vn -0.8520 0.5236 -0.0019
vn -0.8528 0.5223 -0.0023
vn -0.8332 0.5197 0.1886
vn 0.7179 -0.0061 -0.6962
vn 0.9728 0.2315 0.0081
vn 0.9760 0.2178 0.0045
vn 0.8963 0.4435 0.0007
vn 0.8957 0.4447 0.0004
vn 0.8848 0.4231 0.1953
vn 0.8721 0.4516 0.1884
vn 0.9783 -0.0623 0.1976
vn 0.9865 -0.0448 0.1573
vn 0.9703 0.1865 0.1539
vn -0.8757 -0.0085 -0.4827
vn -0.8962 0.0009 -0.4437
vn -0.7777 0.0007 -0.6286
vn -0.7638 -0.0025 -0.6454
vn -0.7960 0.5704 0.2027
vn -0.3731 0.0050 -0.9278
vn -0.3638 0.2372 -0.9008
vn -0.3792 0.2319 -0.8958
vn -0.2206 0.2714 -0.9368
vn -0.1528 0.2788 -0.9481
vn 0.6609 0.2677 0.7011
vn 0.2273 0.0590 0.9720
vn 0.3983 -0.0029 0.9173
vn 0.3861 0.0194 0.9223
vn 0.9557 0.2306 0.1828
vn 0.9366 0.2918 0.1941
vn 0.7235 0.2203 0.6543
vn 0.5219 0.8530 0.0073
vn 0.4019 0.9156 -0.0124
vn 0.3151 0.9490 0.0060
vn 0.3107 0.9318 0.1878
vn 0.3865 0.8998 0.2024
vn -0.1844 0.9573 0.2225
vn 0.7464 0.1061 -0.6570
vn 0.8744 0.0544 -0.4822
vn 0.7619 0.0047 -0.6477
vn 0.3147 -0.0040 -0.9492
vn 0.4167 0.0055 -0.9090
vn 0.4330 0.2153 -0.8753
vn 0.4024 0.2268 -0.8869
vn 0.5744 0.1700 -0.8007
vn 0.5916 0.0044 -0.8062
vn 0.5229 -0.0051 -0.8524
vn -0.9332 0.3594 0.0041
vn -0.9584 0.2853 -0.0069
vn -0.9879 0.1547 0.0082
vn -0.9204 0.3444 0.1849
vn -0.9296 0.3145 0.1920
vn -0.2912 0.0314 0.9561
vn -0.4382 0.0705 0.8961
vn -0.4662 0.1111 0.8777
vn -0.9524 0.2416 0.1858
vn -0.9818 0.1341 0.1348
vn 0.3418 -0.1783 0.9227
vn -0.1449 0.7429 0.6536
vn -0.0646 0.7217 0.6892
vn 0.9680 -0.0005 -0.2509
vn 0.9797 0.0071 -0.2003
vn 0.9981 0.0004 -0.0619
vn -0.9675 0.1249 0.2199
vn -0.9747 -0.1507 0.1648
vn -0.9836 -0.0485 0.1735
vn -0.9498 -0.1086 0.2934
vn -0.7517 -0.0529 0.6573
vn -0.0293 0.3007 0.9533
vn 0.1890 0.9575 0.2179
vn 0.2178 0.9550 0.2015
vn 0.0763 0.9825 0.1698
vn 0.0075 -0.3816 0.9243
vn -0.0090 -0.3803 0.9248
vn 0.0069 -0.3809 0.9246
vn -0.4310 0.2140 0.8766
vn -0.4439 0.2026 0.8729
vn -0.2409 0.2185 0.9456
vn -0.3649 0.3857 0.8474
vn -0.2664 0.9512 0.1559
vn -0.0997 0.9770 0.1883
vn -0.1035 0.9733 0.2051
vn -0.1021 0.9732 0.2060
vn -0.0714 0.9974 0.0047
vn -0.3001 -0.0025 -0.9539
vn -0.1339 0.0051 -0.9910
vn -0.1243 0.0074 -0.9922
vn 0.6138 0.0549 0.7876
vn 0.5357 -0.0614 0.8422
vn 0.5521 -0.1363 0.8226
vn 0.2443 0.4027 0.8821
vn 0.2008 0.3962 0.8959
vn 0.1660 0.3021 0.9387
vn 0.7970 0.6040 0.0043
vn 0.7283 0.6852 -0.0101
vn 0.6722 0.7404 0.0041
vn -0.6550 -0.1737 0.7354
vn -0.7139 -0.1457 0.6849
vn -0.8043 -0.2276 0.5490
vn -0.2551 -0.2897 0.9225
vn -0.1309 -0.2082 0.9693
vn -0.1134 -0.1338 0.9845
vn -0.2837 -0.0606 0.9570
vn -0.3577 -0.1217 0.9258
vn -0.0095 0.9738 0.2273
vn -0.0091 0.7855 0.6187
vn -0.7055 0.2851 0.6489
vn -0.6897 0.0803 0.7196
vn -0.7099 0.0994 0.6972
vn -0.6649 0.0963 0.7407
vn -0.5509 0.2509 0.7960
vn 0.4348 0.1433 0.8890
vn 0.5740 0.1520 0.8046
vn 0.5839 0.2172 0.7822
vn 0.4624 0.3358 0.8206
vn 0.4060 0.2926 0.8657
vn 0.3915 0.2251 0.8922
vn -0.9408 0.0043 -0.3391
vn -0.9818 -0.0042 -0.1897
vn -0.9916 0.0039 -0.1293
vn -0.9372 0.0291 -0.3476
vn 0.3107 0.4674 0.8277
vn 0.4653 0.4296 0.7739
vn 0.4925 0.4716 0.7314
vn 0.4435 0.5723 0.6897
vn -0.4678 -0.1496 0.8711
vn -0.4312 -0.1201 0.8942
vn -0.6008 0.0226 0.7990
vn -0.5885 -0.0927 0.8032
vn -0.0866 0.3995 0.9126
vn -0.0340 0.3844 0.9225
vn -0.1703 0.5483 0.8187
vn -0.1709 0.5621 0.8093
vn -0.2930 0.3893 0.8733
vn -0.2202 0.3277 0.9188
vn -0.3051 0.6234 0.7199
vn -0.3077 0.6281 0.7147
vn -0.2987 0.6244 0.7217
vn -0.4750 0.5844 0.6579
vn -0.3946 0.4211 0.8167
vn 0.1002 -0.2345 0.9669
vn 0.1991 -0.2424 0.9495
vn 0.2487 -0.1837 0.9510
vn 0.1844 -0.0432 0.9819
vn 0.0260 -0.1082 0.9938
vn 0.2824 0.5875 0.7583
vn 0.3183 0.6144 0.7219
vn 0.2807 0.6945 0.6625
vn 0.1584 0.7375 0.6565
vn 0.1767 0.7456 0.6425
vn -0.8693 0.0574 -0.4910
vn -0.7628 0.0999 -0.6389
vn 0.9688 0.1027 0.2253
vn 0.7485 0.0819 0.6580
vn 0.7017 0.0142 0.7124
vn 0.6997 0.0130 0.7143
vn 0.9514 -0.1082 0.2883
vn 0.9632 -0.0926 0.2523
vn -0.4844 -0.0031 -0.8748
vn 0.4918 -0.2242 0.8413
vn 0.3806 -0.2211 0.8979
vn 0.3482 -0.3565 0.8670
vn -0.7438 0.6390 0.1962
vn -0.6152 0.7537 0.2310
vn -0.6770 0.7210 0.1475
vn -0.0536 0.0087 0.9985
vn 0.0154 0.1145 0.9933
vn -0.0477 0.2203 0.9743
vn -0.1875 0.1438 0.9717
vn -0.2529 0.1543 0.9551
vn 0.7613 -0.2533 0.5969
vn 0.8109 -0.2246 0.5404
vn 0.6765 -0.1291 0.7250
vn 0.6476 -0.1603 0.7449
vn 0.6496 -0.2906 0.7026
vn -0.4986 0.4257 0.7550
vn -0.5218 0.4831 0.7031
vn -0.6576 0.4501 0.6042
vn -0.6551 0.3305 0.6794
vn -0.5681 0.3093 0.7626
vn -0.4258 0.8737 0.2352
vn -0.4198 0.8848 0.2023
vn -0.2967 0.9355 0.1919
vn -0.4770 0.8647 0.1574
vn -0.5492 0.8137 0.1906
vn -0.5488 0.8104 0.2050
vn -0.5321 0.0022 -0.8466
vn -0.6195 -0.0029 -0.7850
vn -0.6681 0.0029 -0.7440
vn -0.6494 0.1442 -0.7466
vn -0.5870 0.1692 -0.7917
vn -0.5132 0.1911 -0.8367
vn 0.7783 0.5965 0.1961
vn 0.7776 0.5973 0.1964
vn 0.5789 0.4501 0.6799
vn 0.6585 0.3445 0.6691
vn 0.1711 0.5848 0.7929
vn 0.1045 0.6518 0.7511
vn -0.0152 0.6304 0.7762
vn -0.0722 0.6460 0.7600
vn 0.0533 0.4846 0.8731
vn 0.1161 0.4821 0.8684
vn 0.5861 0.7750 0.2364
vn 0.7196 0.6668 0.1939
vn 0.6624 0.7313 0.1628
vn 0.5192 0.8355 0.1799
vn 0.4951 0.8468 0.1947
vn 0.2331 0.0033 -0.9724
vn 0.1178 0.0031 -0.9930
vn 0.0746 -0.0048 -0.9972
vn 0.1062 0.2875 -0.9519
vn 0.1241 0.2866 -0.9500
usemtl None
s off
f 1//1 2//1 3//1
f 1//2 3//2 4//2
f 1//3 4//3 5//3
f 1//4 5//4 6//4
f 1//4 6//4 7//4
f 1//4 7//4 8//4
f 1//4 8//4 9//4
f 1//4 9//4 10//4
f 1//4 10//4 11//4
f 1//4 11//4 12//4
f 1//4 12//4 13//4
f 1//4 13//4 14//4
f 1//4 14//4 15//4
f 1//4 15//4 16//4
f 1//4 16//4 17//4
f 1//5 17//5 18//5
f 1//6 18//6 19//6
f 1//7 19//7 20//7
f 1//1 20//1 21//1
f 1//4 21//4 22//4
f 1//4 22//4 23//4
f 24//8 25//8 26//8
f 21//9 27//9 28//9
f 21//10 28//10 22//10
f 29//11 5//11 30//11
f 4//12 3//12 31//12
f 4//13 30//13 5//13
f 32//14 26//14 25//14
f 25//15 33//15 34//15
f 25//16 34//16 32//16
f 2//17 35//17 36//17
f 2//18 36//18 3//18
f 17//19 16//19 37//19
f 17//20 37//20 38//20
f 39//21 40//21 24//21
f 41//22 42//22 19//22
f 41//23 43//23 44//23
f 45//24 35//24 2//24
f 2//25 1//25 46//25
f 2//26 46//26 45//26
f 47//27 48//27 49//27
f 50//28 51//28 52//28
f 50//29 52//29 53//29
f 54//30 55//30 25//30
f 54//31 25//31 24//31
f 54//32 24//32 40//32
f 22//33 56//33 57//33
f 22//34 57//34 23//34
f 47//35 58//35 59//35
f 47//36 59//36 60//36
f 61//37 40//37 39//37
f 39//38 62//38 63//38
f 39//39 63//39 61//39
f 61//40 63//40 64//40
f 15//41 43//41 16//41
f 42//42 41//42 44//42
f 42//43 44//43 65//43
f 44//44 50//44 66//44
f 44//45 66//45 65//45
f 65//46 66//46 67//46
f 65//47 67//47 68//47
f 69//48 70//48 19//48
f 69//49 19//49 42//49
f 69//50 42//50 65//50
f 6//51 71//51 72//51
f 6//52 72//52 7//52
f 7//53 72//53 73//53
f 7//54 73//54 8//54
f 74//55 61//55 64//55
f 75//56 10//56 76//56
f 75//57 76//57 62//57
f 75//58 62//58 39//58
f 75//59 39//59 24//59
f 75//60 24//60 26//60
f 77//61 68//61 78//61
f 79//62 58//62 47//62
f 79//63 80//63 81//63
f 79//64 81//64 58//64
f 82//65 69//65 65//65
f 82//66 65//66 68//66
f 82//67 68//67 77//67
f 83//68 84//68 53//68
f 83//69 53//69 32//69
f 83//70 32//70 34//70
f 83//71 34//71 85//71
f 83//72 85//72 86//72
f 87//73 88//73 89//73
f 37//74 43//74 41//74
f 37//75 41//75 38//75
f 37//76 16//76 43//76
f 13//77 51//77 14//77
f 90//78 14//78 51//78
f 51//79 50//79 44//79
f 51//80 44//80 90//80
f 90//81 44//81 43//81
f 90//82 43//82 15//82
f 90//83 15//83 14//83
f 91//84 63//84 62//84
f 91//85 62//85 29//85
f 91//86 29//86 30//86
f 91//87 92//87 64//87
f 91//88 64//88 63//88
f 93//89 48//89 94//89
f 94//90 95//90 96//90
f 94//91 96//91 93//91
f 97//92 92//92 91//92
f 97//93 91//93 30//93
f 80//94 79//94 56//94
f 98//95 88//95 87//95
f 98//96 99//96 88//96
f 18//97 17//97 38//97
f 18//98 38//98 41//98
f 18//99 41//99 19//99
f 100//100 92//100 97//100
f 100//101 97//101 30//101
f 100//102 30//102 4//102
f 100//103 4//103 31//103
f 100//104 31//104 101//104
f 102//105 103//105 60//105
f 104//106 105//106 85//106
f 104//107 85//107 34//107
f 104//108 34//108 33//108
f 1//109 23//109 57//109
f 1//110 57//110 49//110
f 1//111 49//111 46//111
f 106//112 95//112 94//112
f 106//113 94//113 107//113
f 107//114 94//114 103//114
f 107//115 108//115 106//115
f 55//116 54//116 89//116
f 89//117 88//117 104//117
f 89//118 104//118 33//118
f 89//119 33//119 55//119
f 55//120 33//120 25//120
f 11//121 10//121 75//121
f 75//122 26//122 12//122
f 75//123 12//123 11//123
f 109//124 77//124 81//124
f 109//125 81//125 80//125
f 109//126 80//126 27//126
f 59//127 110//127 111//127
f 59//128 111//128 102//128
f 59//129 102//129 60//129
f 112//130 66//130 50//130
f 112//131 50//131 53//131
f 112//132 53//132 84//132
f 36//133 35//133 101//133
f 36//134 101//134 31//134
f 36//135 31//135 3//135
f 113//136 45//136 46//136
f 113//137 46//137 49//137
f 113//138 49//138 48//138
f 113//139 48//139 93//139
f 113//140 93//140 45//140
f 105//141 104//141 88//141
f 105//142 88//142 99//142
f 114//143 64//143 92//143
f 114//144 92//144 100//144
f 114//145 100//145 101//145
f 114//146 101//146 95//146
f 114//147 95//147 106//147
f 115//148 58//148 81//148
f 115//149 81//149 77//149
f 115//150 77//150 78//150
f 115//151 78//151 110//151
f 115//152 110//152 59//152
f 115//153 59//153 58//153
f 116//154 71//154 6//154
f 116//155 6//155 5//155
f 116//156 5//156 29//156
f 116//157 29//157 71//157
f 117//158 111//158 110//158
f 117//159 110//159 78//159
f 117//160 78//160 118//160
f 117//161 118//161 86//161
f 96//162 35//162 45//162
f 96//163 45//163 93//163
f 96//164 95//164 101//164
f 96//165 101//165 35//165
f 103//166 102//166 119//166
f 103//167 119//167 120//167
f 119//168 98//168 108//168
f 119//169 108//169 120//169
f 120//170 108//170 107//170
f 120//171 107//171 103//171
f 121//172 108//172 98//172
f 121//173 98//173 87//173
f 121//174 87//174 122//174
f 121//175 122//175 74//175
f 121//176 106//176 108//176
f 123//177 49//177 57//177
f 123//178 57//178 56//178
f 123//179 56//179 79//179
f 123//180 79//180 47//180
f 123//181 47//181 49//181
f 124//182 111//182 117//182
f 124//183 117//183 86//183
f 124//184 86//184 85//184
f 124//185 85//185 105//185
f 124//186 105//186 99//186
f 72//187 71//187 29//187
f 72//188 29//188 73//188
f 70//189 69//189 82//189
f 70//190 82//190 77//190
f 77//191 109//191 125//191
f 77//192 125//192 70//192
f 70//193 125//193 20//193
f 70//194 20//194 19//194
f 9//195 76//195 10//195
f 28//196 27//196 80//196
f 28//197 80//197 56//197
f 28//198 56//198 22//198
f 126//199 61//199 74//199
f 126//200 74//200 122//200
f 126//201 40//201 61//201
f 127//202 48//202 47//202
f 127//203 47//203 60//203
f 127//204 60//204 103//204
f 103//205 94//205 48//205
f 103//206 48//206 127//206
f 128//207 21//207 20//207
f 128//208 20//208 125//208
f 128//209 125//209 109//209
f 128//210 109//210 27//210
f 128//211 27//211 21//211
f 129//212 106//212 121//212
f 129//213 121//213 74//213
f 129//214 74//214 64//214
f 129//215 64//215 114//215
f 129//216 114//216 106//216
f 130//217 122//217 87//217
f 87//218 89//218 54//218
f 87//219 54//219 130//219
f 130//220 54//220 40//220
f 130//221 40//221 126//221
f 130//222 126//222 122//222
f 131//223 76//223 9//223
f 131//224 9//224 8//224
f 131//225 8//225 73//225
f 131//226 73//226 29//226
f 131//227 29//227 62//227
f 131//228 62//228 76//228
f 67//229 66//229 112//229
f 67//230 112//230 118//230
f 67//231 118//231 78//231
f 67//232 78//232 68//232
f 132//233 111//233 124//233
f 132//234 124//234 99//234
f 99//235 98//235 119//235
f 99//236 119//236 132//236
f 132//237 119//237 102//237
f 132//238 102//238 111//238
f 133//239 86//239 118//239
f 133//240 118//240 112//240
f 133//241 112//241 84//241
f 133//242 84//242 83//242
f 133//243 83//243 86//243
f 52//244 51//244 13//244
f 13//245 12//245 26//245
f 13//246 26//246 52//246
f 52//247 26//247 32//247
f 52//248 32//248 53//248
