# Blender v2.93.6 OBJ File: ''
# www.blender.org
mtllib link7_convex.mtl
o link7.obj.convex
v -0.029975 0.052039 0.032195
v -0.037013 0.052071 0.023885
v -0.042725 0.052064 0.010443
v -0.044035 0.052074 0.001620
v -0.043266 0.052097 -0.008526
v -0.040038 0.052095 -0.018477
v -0.034473 0.052108 -0.027532
v -0.028757 0.052110 -0.033326
v -0.023201 0.052086 -0.037467
v -0.013272 0.052005 -0.041875
v -0.002946 0.052000 -0.043820
v 0.013710 0.052003 -0.042013
v 0.031151 0.051991 -0.031215
v 0.042535 0.052002 -0.012075
v 0.043768 0.052000 0.003468
v 0.040587 0.052040 0.017237
v 0.027746 0.052052 0.034283
v 0.018262 0.052101 0.040127
v 0.008517 0.052105 0.043263
v -0.001018 0.052071 0.044030
v -0.011782 0.052055 0.042409
v -0.021465 0.052004 0.038373
v 0.022050 0.106818 -0.022362
v 0.031087 0.106799 0.001497
v 0.077637 0.095991 -0.035709
v -0.036570 0.096558 -0.024466
v -0.042960 0.096820 -0.009041
v -0.022532 0.106800 -0.020709
v -0.027495 0.096755 -0.034204
v 0.064352 0.078304 -0.057963
v 0.079328 0.076647 -0.037021
v -0.035310 0.084614 0.040737
v 0.021530 0.096689 0.038274
v 0.033384 0.096679 0.028652
v 0.024465 0.106837 0.018590
v 0.015969 0.106800 0.026112
v 0.080360 0.092514 -0.039083
v 0.066782 0.094387 -0.054021
v -0.000489 0.106800 -0.030825
v 0.035256 0.096057 -0.077529
v -0.036427 0.089079 0.039501
v -0.002608 0.096674 0.043852
v -0.011197 0.096978 0.042299
v -0.019961 0.097167 0.038751
v -0.015706 0.106801 0.026250
v -0.023894 0.106802 0.019354
v 0.038972 0.093692 -0.079642
v 0.049938 0.094904 -0.069712
v -0.028507 0.106802 -0.011434
v -0.043904 0.096649 -0.002414
v -0.030755 0.106804 0.003739
v -0.039666 0.088832 0.036274
v -0.040712 0.084714 0.035504
v -0.043358 0.096822 0.006639
v 0.054797 0.082413 -0.069278
v 0.039656 0.081628 -0.081087
v 0.039355 0.089372 -0.081097
v 0.058682 0.088348 -0.065670
v -0.039005 0.097569 0.018734
v 0.035179 0.093829 -0.079449
v 0.079071 0.094492 -0.035077
v 0.008366 0.096608 0.043150
v 0.074201 0.079664 -0.047868
v 0.034635 0.052124 0.027228
v 0.080795 0.082324 -0.036670
v 0.080879 0.090443 -0.037306
v 0.080874 0.079979 -0.039108
v 0.081306 0.085821 -0.039723
v -0.005273 0.106803 0.030338
v 0.049675 0.076643 -0.069796
v 0.038152 0.078362 -0.080493
v 0.006889 0.106800 0.029908
v 0.073059 0.088556 -0.050352
v 0.035347 0.079387 -0.079851
v -0.014643 0.106821 -0.026963
v 0.055083 0.092770 -0.067465
v 0.065141 0.081589 -0.059106
v 0.036947 0.076667 -0.079381
v 0.062302 0.095824 -0.055877
vn -0.0104 -0.9999 0.0050
vn 0.0000 -1.0000 -0.0012
vn 0.0022 -1.0000 -0.0022
vn -0.0026 -1.0000 -0.0006
vn 0.0005 -1.0000 -0.0012
vn -0.0008 -1.0000 -0.0011
vn -0.0051 -1.0000 -0.0012
vn -0.0089 -1.0000 -0.0015
vn -0.0004 -1.0000 0.0004
vn 0.0001 -1.0000 0.0005
vn -0.0007 -1.0000 0.0001
vn -0.0001 -1.0000 0.0007
vn -0.0006 -1.0000 -0.0001
vn 0.0007 -1.0000 0.0030
vn 0.0002 -1.0000 0.0008
vn -0.0001 -1.0000 0.0083
vn 0.0007 -1.0000 0.0035
vn 0.0032 -1.0000 -0.0051
vn 0.0017 -1.0000 -0.0016
vn 0.0178 -0.9994 -0.0301
vn 0.1755 0.9823 -0.0657
vn -0.9235 0.0205 -0.3829
vn -0.4615 0.7845 -0.4142
vn 0.3934 -0.8507 -0.3486
vn 0.4175 -0.8742 -0.2478
vn -0.3739 -0.2240 0.9000
vn 0.6301 0.0184 0.7763
vn 0.3806 0.7976 0.4680
vn 0.4089 0.7849 0.4656
vn 0.5181 0.7690 -0.3745
vn 0.0653 0.9822 -0.1760
vn -0.1734 0.2223 0.9594
vn -0.1679 0.1940 0.9665
vn -0.3674 0.7930 0.4860
vn -0.3879 0.7982 0.4609
vn 0.5110 0.7883 0.3429
vn 0.3143 0.9418 0.1197
vn 0.2968 0.8518 -0.4317
vn -0.5740 0.8166 -0.0607
vn -0.5833 0.8076 -0.0866
vn -0.5001 0.8037 -0.3223
vn -0.5778 0.7761 -0.2526
vn -0.7063 0.0193 0.7076
vn -0.6948 0.0422 0.7180
vn -0.9614 0.2110 0.1766
vn -0.9956 -0.0711 0.0614
vn -0.9961 0.0108 0.0873
vn 0.6141 0.0229 -0.7889
vn 0.6246 0.0642 -0.7783
vn -0.4456 0.8079 0.3856
vn -0.4934 0.7819 0.3809
vn -0.5146 0.8270 0.2262
vn -0.5892 0.7913 0.1632
vn -0.7895 0.5607 0.2495
vn -0.0147 0.6531 -0.7571
vn -0.0367 0.3160 -0.9480
vn -0.4540 0.5908 -0.6670
vn 0.7387 0.6677 -0.0921
vn 0.5780 0.7170 0.3897
vn -0.8942 -0.2366 0.3801
vn -0.9879 -0.0516 0.1466
vn 0.6781 -0.7176 0.1587
vn 0.5359 -0.8432 -0.0426
vn 0.5246 -0.0031 0.8514
vn 0.3473 0.0035 0.9377
vn 0.3063 0.0171 0.9518
vn 0.5640 -0.6873 -0.4577
vn 0.0485 -0.9981 0.0373
vn 0.7155 -0.0022 0.6986
vn -0.9512 0.0030 -0.3086
vn 0.8084 0.0377 0.5875
vn 0.8127 0.0391 0.5813
vn 0.8097 0.0040 0.5868
vn 0.8372 -0.2205 0.5006
vn 0.8381 -0.2467 0.4865
vn -0.5622 -0.2947 0.7727
vn -0.6689 -0.2892 0.6849
vn -0.7281 -0.3016 0.6156
vn 0.6485 -0.5968 -0.4725
vn 0.9936 -0.0637 0.0933
vn 0.9261 -0.2565 0.2766
vn -0.0821 0.7896 0.6080
vn 0.0802 0.0028 0.9968
vn 0.0639 0.0063 0.9979
vn -0.0950 0.0006 0.9955
vn -0.1486 -0.0567 0.9873
vn 0.3852 -0.8504 -0.3584
vn 0.5722 -0.4461 -0.6882
vn 0.5878 -0.4621 -0.6641
vn 0.0428 0.8035 0.5938
vn 0.0217 0.7934 0.6083
vn 0.2056 0.7967 0.5683
vn 0.2404 0.7820 0.5751
vn 0.7060 0.3868 -0.5932
vn 0.7993 0.1682 -0.5769
vn -0.8519 -0.0041 -0.5236
vn -0.7316 0.0073 -0.6817
vn -0.7118 0.0149 -0.7022
vn 0.5774 -0.3959 -0.7140
vn -0.3464 0.0220 -0.9378
vn -0.2701 -0.0117 -0.9628
vn -0.2446 -0.0634 -0.9676
vn -0.0000 1.0000 -0.0002
vn 0.0004 1.0000 -0.0000
vn 0.0002 1.0000 -0.0000
vn -0.0003 1.0000 0.0000
vn 0.0002 1.0000 -0.0001
vn 0.0000 1.0000 -0.0000
vn -0.0025 1.0000 0.0021
vn 0.0008 1.0000 -0.0019
vn -0.0004 1.0000 0.0009
vn -0.0004 1.0000 -0.0010
vn 0.0036 1.0000 0.0079
vn -0.0742 0.9580 -0.2771
vn -0.3256 0.8119 -0.4846
vn -0.4881 0.6205 -0.6138
vn -0.5976 0.0011 -0.8018
vn -0.5852 0.0030 -0.8109
vn -0.5911 0.0155 -0.8065
vn -0.2784 0.6338 0.7217
vn -0.2082 0.8038 0.5572
vn -0.2154 0.8076 0.5490
vn 0.6182 0.1941 -0.7617
vn 0.5853 0.3049 -0.7513
vn 0.5157 0.5705 -0.6391
vn 0.5116 0.6788 -0.5268
vn 0.6859 0.3306 -0.6483
vn 0.6993 0.3072 -0.6455
vn 0.7000 -0.0243 -0.7138
vn 0.7286 0.0317 -0.6843
vn 0.7746 -0.0947 -0.6253
vn 0.7752 -0.1227 -0.6197
vn 0.7813 0.1679 -0.6011
vn 0.6870 -0.3804 -0.6191
vn 0.6311 -0.3858 -0.6730
vn -0.6176 0.7862 0.0222
vn -0.9900 0.0052 -0.1409
vn -0.9971 -0.0039 -0.0755
vn 0.0571 -0.8492 -0.5250
vn -0.1239 -0.7448 -0.6556
vn -0.3583 -0.4843 -0.7982
vn -0.4155 -0.3869 -0.8232
vn -0.3273 -0.3448 -0.8798
vn 0.4350 -0.6893 -0.5794
vn 0.3035 -0.8623 -0.4053
vn 0.2570 -0.8723 -0.4160
vn 0.9300 0.3440 0.1294
vn 0.9857 0.0030 0.1685
vn 0.9823 0.1497 -0.1124
vn 0.4344 0.7856 -0.4405
vn 0.2059 0.9469 -0.2470
vn 0.1532 0.9762 -0.1537
vn 0.0390 0.9985 -0.0379
vn 0.4059 0.8577 -0.3157
usemtl None
s off
f 1//1 2//1 3//1
f 1//2 3//2 4//2
f 1//3 4//3 5//3
f 1//4 5//4 6//4
f 1//5 6//5 7//5
f 1//6 7//6 8//6
f 1//7 8//7 9//7
f 1//8 9//8 10//8
f 1//9 10//9 11//9
f 1//10 11//10 12//10
f 1//11 12//11 13//11
f 1//12 13//12 14//12
f 1//13 14//13 15//13
f 1//14 15//14 16//14
f 1//15 16//15 17//15
f 1//16 17//16 18//16
f 1//17 18//17 19//17
f 1//18 19//18 20//18
f 1//19 20//19 21//19
f 1//20 21//20 22//20
f 23//21 24//21 25//21
f 26//22 6//22 27//22
f 26//23 28//23 29//23
f 13//24 30//24 31//24
f 13//25 31//25 14//25
f 21//26 32//26 22//26
f 33//27 17//27 34//27
f 33//28 34//28 35//28
f 33//29 35//29 36//29
f 37//30 38//30 25//30
f 39//31 23//31 40//31
f 41//32 32//32 42//32
f 41//33 42//33 43//33
f 41//34 44//34 45//34
f 41//35 45//35 46//35
f 35//36 34//36 25//36
f 35//37 25//37 24//37
f 47//38 40//38 48//38
f 49//39 27//39 50//39
f 49//40 50//40 51//40
f 49//41 28//41 26//41
f 49//42 26//42 27//42
f 32//43 41//43 52//43
f 32//44 52//44 53//44
f 53//45 52//45 54//45
f 53//46 54//46 50//46
f 53//47 50//47 4//47
f 55//48 56//48 57//48
f 55//49 57//49 58//49
f 59//50 52//50 41//50
f 59//51 41//51 46//51
f 59//52 46//52 51//52
f 59//53 51//53 54//53
f 59//54 54//54 52//54
f 60//55 40//55 47//55
f 60//56 47//56 57//56
f 60//57 29//57 40//57
f 61//58 37//58 25//58
f 61//59 25//59 34//59
f 3//60 2//60 53//60
f 3//61 53//61 4//61
f 15//62 31//62 16//62
f 15//63 14//63 31//63
f 18//64 17//64 33//64
f 33//65 62//65 19//65
f 33//66 19//66 18//66
f 63//67 31//67 30//67
f 64//68 17//68 16//68
f 64//69 34//69 17//69
f 5//70 27//70 6//70
f 65//71 66//71 61//71
f 65//72 61//72 34//72
f 65//73 34//73 64//73
f 65//74 64//74 16//74
f 65//75 16//75 31//75
f 1//76 22//76 32//76
f 1//77 32//77 53//77
f 1//78 53//78 2//78
f 67//79 31//79 63//79
f 67//80 68//80 65//80
f 67//81 65//81 31//81
f 42//82 69//82 43//82
f 20//83 19//83 62//83
f 20//84 62//84 42//84
f 20//85 42//85 32//85
f 20//86 32//86 21//86
f 70//87 30//87 13//87
f 70//88 71//88 55//88
f 70//89 55//89 30//89
f 69//90 42//90 62//90
f 69//91 62//91 72//91
f 62//92 33//92 36//92
f 62//93 36//93 72//93
f 73//94 38//94 37//94
f 73//95 37//95 68//95
f 7//96 6//96 26//96
f 26//97 29//97 8//97
f 26//98 8//98 7//98
f 56//99 55//99 71//99
f 74//100 60//100 57//100
f 74//101 57//101 56//101
f 74//102 56//102 71//102
f 28//103 49//103 51//103
f 28//104 51//104 46//104
f 28//105 46//105 45//105
f 28//106 45//106 69//106
f 28//107 69//107 72//107
f 28//108 72//108 36//108
f 28//109 36//109 35//109
f 28//110 35//110 24//110
f 28//111 24//111 23//111
f 28//112 23//112 39//112
f 28//113 39//113 75//113
f 75//114 39//114 40//114
f 40//115 29//115 28//115
f 40//116 28//116 75//116
f 9//117 8//117 29//117
f 9//118 29//118 60//118
f 9//119 60//119 74//119
f 44//120 41//120 43//120
f 44//121 43//121 69//121
f 44//122 69//122 45//122
f 76//123 58//123 57//123
f 76//124 57//124 47//124
f 76//125 47//125 48//125
f 76//126 48//126 38//126
f 38//127 73//127 58//127
f 38//128 58//128 76//128
f 77//129 55//129 58//129
f 77//130 58//130 73//130
f 77//131 73//131 68//131
f 77//132 68//132 67//132
f 77//133 67//133 63//133
f 77//134 63//134 30//134
f 77//135 30//135 55//135
f 50//136 54//136 51//136
f 50//137 27//137 5//137
f 50//138 5//138 4//138
f 78//139 12//139 11//139
f 78//140 11//140 10//140
f 78//141 10//141 9//141
f 78//142 9//142 74//142
f 78//143 74//143 71//143
f 78//144 71//144 70//144
f 78//145 70//145 13//145
f 78//146 13//146 12//146
f 66//147 37//147 61//147
f 66//148 65//148 68//148
f 66//149 68//149 37//149
f 79//150 38//150 48//150
f 79//151 48//151 40//151
f 40//152 23//152 25//152
f 40//153 25//153 79//153
f 79//154 25//154 38//154
