# Blender v2.93.6 OBJ File: ''
# www.blender.org
mtllib link6_convex.mtl
o link6.obj.convex
v 0.123994 0.025458 0.051197
v 0.112193 0.037192 0.051199
v 0.096210 0.043315 0.051223
v 0.084025 0.044034 0.051216
v 0.052828 0.031754 0.051189
v 0.053597 -0.031059 0.051187
v 0.082446 -0.043985 0.051388
v 0.097130 -0.043143 0.051200
v 0.109158 -0.038847 0.051199
v 0.122347 -0.027866 0.051200
v 0.129874 -0.014322 0.051199
v 0.132208 0.001350 0.051199
v 0.129336 0.015630 0.051197
v -0.007400 0.054148 0.023724
v -0.005128 0.054418 -0.024063
v -0.015126 0.052653 -0.020082
v -0.023699 0.050651 -0.007574
v -0.022397 0.051059 0.011884
v -0.044623 0.028378 0.016425
v -0.046951 0.029664 0.001408
v -0.048005 -0.014747 0.003164
v 0.131348 -0.007998 -0.009396
v 0.131421 0.006249 -0.021853
v 0.121453 0.028662 -0.018448
v -0.031783 0.038750 0.025374
v 0.059885 -0.015544 -0.080214
v 0.077314 -0.023509 -0.079608
v 0.070077 -0.030948 -0.076146
v -0.028926 -0.014661 -0.038945
v 0.057760 0.000354 -0.081278
v -0.043919 -0.014745 0.019759
v -0.035119 -0.014812 0.033151
v 0.078251 0.024287 -0.079509
v 0.062339 0.024078 -0.077814
v 0.074318 0.033919 -0.074768
v 0.103422 -0.038909 -0.042110
v 0.096678 -0.043244 -0.014294
v 0.086062 -0.040907 -0.049497
v 0.095384 -0.035672 -0.070337
v 0.109980 -0.027204 -0.068092
v 0.121277 -0.015132 -0.063276
v 0.117625 -0.024898 -0.059065
v 0.082371 -0.036209 -0.072672
v -0.040367 -0.014752 -0.026331
v 0.111398 0.015605 -0.072297
v 0.108684 -0.011412 -0.074084
v 0.100013 0.024123 -0.075251
v 0.129079 -0.006632 -0.045296
v 0.126265 -0.000245 -0.058419
v 0.015562 0.056309 0.024034
v 0.043446 0.055119 0.017819
v 0.040446 0.055529 -0.018833
v 0.015051 0.056206 -0.024085
v -0.046934 -0.014834 -0.010732
v -0.043011 0.027855 -0.020195
v -0.034979 0.028510 -0.031425
v -0.031455 0.035793 -0.029034
v -0.023225 0.031264 -0.039427
v 0.100100 -0.023902 -0.075228
v 0.090083 0.036134 -0.071522
v 0.099598 0.039292 -0.048589
v 0.102437 0.033798 -0.068088
v 0.113921 0.035382 -0.019367
v -0.017132 0.040683 0.035457
v -0.029993 0.029048 0.035958
v -0.014513 0.031953 0.042906
v 0.117111 -0.032890 -0.020645
v 0.125861 -0.022236 -0.020175
v 0.120110 -0.027355 -0.042625
v 0.124368 -0.018195 -0.048727
v -0.039733 0.037406 0.010686
v -0.035869 0.042117 -0.005669
v 0.103877 0.041045 -0.012659
v -0.018070 0.040549 -0.034711
v -0.024988 -0.014744 0.041242
v -0.010917 -0.014281 0.047107
v 0.083335 -0.043403 -0.020392
v 0.128215 0.005706 -0.049971
v 0.121380 0.015205 -0.063099
v 0.110567 0.026951 -0.067759
v 0.118857 0.026578 -0.052366
v -0.020125 0.021211 0.043108
v -0.009168 0.021677 0.046587
v 0.055642 0.012235 -0.079453
v 0.118023 0.008846 -0.068405
v 0.103585 -0.033878 -0.065560
v 0.124764 0.019519 -0.043403
v 0.127329 0.019311 -0.017965
v -0.040368 0.035457 -0.014930
v -0.037619 0.028484 0.028323
v 0.109808 0.035077 -0.046044
v -0.046709 0.028003 -0.007900
v 0.113856 -0.016021 -0.070434
v 0.120245 -0.006879 -0.066297
v 0.086831 -0.029051 -0.076754
v 0.109491 -0.038422 -0.010677
v 0.065655 0.013335 -0.081334
v 0.112939 -0.033175 -0.045550
v -0.025173 0.022046 -0.040277
v -0.027616 0.043835 -0.021411
v 0.067158 -0.007441 -0.081681
v 0.088525 0.027981 -0.076758
vn 0.0024 0.0023 1.0000
vn -0.0006 -0.0024 1.0000
vn -0.0003 -0.0016 1.0000
vn -0.0001 -0.0000 1.0000
vn -0.0045 0.0055 1.0000
vn 0.0131 -0.0051 0.9999
vn 0.0001 -0.0000 1.0000
vn -0.0000 0.0000 1.0000
vn -0.0002 0.0000 1.0000
vn 0.0008 0.0004 1.0000
vn -0.1749 0.9846 -0.0027
vn -0.2199 0.9755 0.0055
vn -0.1960 0.9806 -0.0075
vn -0.9874 0.0296 0.1556
vn 0.9998 -0.0155 -0.0118
vn 0.7051 0.7091 0.0069
vn -0.4721 0.7896 0.3920
vn -0.1156 -0.3245 -0.9388
vn -0.3776 -0.4618 -0.8026
vn -0.4195 -0.1163 -0.9003
vn 0.9891 -0.1473 0.0087
vn -0.9710 0.0026 0.2391
vn -0.2390 -0.9692 0.0590
vn -0.2618 -0.9505 0.1673
vn -0.1021 0.4055 -0.9084
vn 0.1612 -0.9803 -0.1137
vn 0.1809 -0.9699 -0.1627
vn 0.7252 -0.4828 -0.4909
vn 0.0779 -0.9746 -0.2100
vn -0.2278 -0.9607 -0.1585
vn -0.2533 -0.9380 -0.2365
vn -0.2806 -0.8911 -0.3566
vn 0.2761 0.0358 -0.9605
vn 0.9959 -0.0622 -0.0653
vn 0.9291 -0.2126 -0.3027
vn 0.0875 0.9746 0.2062
vn 0.0443 0.9990 0.0075
vn 0.0272 0.9996 -0.0024
vn -0.9217 -0.0013 -0.3880
vn -0.7407 0.0132 -0.6717
vn -0.8138 0.0330 -0.5801
vn -0.7158 0.5048 -0.4825
vn -0.5659 0.4912 -0.6622
vn 0.4004 -0.4838 -0.7782
vn 0.0824 0.9579 -0.2750
vn 0.1640 0.9658 -0.2010
vn 0.2423 0.9425 -0.2303
vn 0.3186 0.5112 -0.7983
vn -0.0362 0.8985 -0.4375
vn 0.6659 0.7460 -0.0028
vn -0.4397 0.7493 0.4952
vn -0.5092 0.5899 0.6267
vn -0.4303 0.5078 0.7463
vn 0.6398 -0.7685 0.0071
vn 0.9365 -0.3505 -0.0138
vn 0.8741 -0.4857 0.0047
vn 0.8380 -0.5451 -0.0230
vn 0.7087 -0.7052 -0.0207
vn 0.9315 -0.3503 -0.0983
vn 0.9477 -0.3110 -0.0717
vn -0.7223 0.6046 0.3357
vn -0.6084 0.7496 0.2607
vn -0.6201 0.7806 0.0783
vn -0.7419 0.6703 0.0178
vn -0.8155 0.5521 0.1737
vn 0.3577 0.9338 0.0098
vn 0.4858 0.8740 -0.0105
vn 0.2289 0.9706 -0.0746
vn 0.2233 0.9747 -0.0074
vn 0.2231 0.9748 -0.0079
vn -0.4837 0.5947 -0.6422
vn -0.2899 0.5869 -0.7560
vn -0.2960 0.5581 -0.7752
vn -0.2322 0.7193 -0.6547
vn -0.3534 0.7544 -0.5531
vn -0.0937 0.9956 -0.0011
vn -0.0883 0.9961 0.0014
vn -0.0781 0.8757 -0.4764
vn -0.6239 0.0229 0.7811
vn -0.2766 -0.8934 0.3539
vn -0.2540 -0.7025 0.6648
vn 0.0571 -0.9983 -0.0074
vn 0.0113 -0.9999 0.0015
vn 0.0562 0.9554 0.2899
vn -0.0841 0.8114 0.5783
vn -0.1321 0.7037 0.6981
vn -0.1410 0.6178 0.7736
vn -0.2150 -0.9766 -0.0106
vn -0.2149 -0.9766 -0.0105
vn -0.2201 -0.9706 -0.0978
vn -0.2197 -0.9700 -0.1038
vn 0.0489 -0.9955 -0.0808
vn 0.9804 0.1971 0.0027
vn 0.9202 0.1868 -0.3439
vn 0.9932 0.0265 -0.1138
vn 0.9763 -0.0134 -0.2159
vn 0.6482 0.3232 -0.6895
vn 0.4755 0.3565 -0.8043
vn 0.4251 0.4674 -0.7752
vn 0.6187 0.7194 -0.3158
vn 0.7492 0.5349 -0.3906
vn -0.5684 0.0342 0.8220
vn -0.3848 0.0041 0.9230
vn -0.3036 0.0285 0.9524
vn -0.3046 0.1767 0.9359
vn -0.4348 0.2434 0.8670
vn -0.3639 0.3265 -0.8723
vn 0.5107 0.0056 -0.8597
vn 0.6628 0.2416 -0.7088
vn 0.8008 0.0732 -0.5944
vn -0.5718 0.8201 0.0211
vn 0.4770 -0.6720 -0.5665
vn 0.6129 -0.7150 -0.3364
vn 0.3176 -0.9276 -0.1968
vn 0.9420 0.3226 -0.0924
vn 0.9498 0.2915 -0.1139
vn 0.9125 0.3377 -0.2307
vn 0.8732 0.4227 -0.2426
vn 0.8450 0.5260 -0.0970
vn 0.8106 0.5805 -0.0770
vn -0.7119 0.5500 -0.4367
vn -0.7676 0.6354 -0.0840
vn 0.8468 0.5318 -0.0064
vn 0.8786 0.4776 -0.0001
vn 0.9532 0.3021 -0.0116
vn -0.6227 0.5216 0.5833
vn -0.7293 0.5365 0.4246
vn -0.8616 0.0251 0.5070
vn -0.8356 0.0130 0.5492
vn -0.7085 0.0377 0.7047
vn 0.3995 0.9121 -0.0921
vn 0.4489 0.8901 -0.0794
vn 0.6692 0.7347 -0.1116
vn 0.6450 0.7581 -0.0959
vn 0.5721 0.7853 -0.2368
vn 0.4148 0.8898 -0.1903
vn -0.1148 0.2815 0.9527
vn -0.1191 0.3004 0.9463
vn -0.9573 0.0241 -0.2882
vn -0.9968 0.0206 -0.0770
vn -0.9996 0.0071 -0.0273
vn -0.8102 0.5730 -0.1233
vn -0.8425 0.4724 -0.2591
vn 0.6682 -0.3671 -0.6471
vn 0.4755 -0.3351 -0.8134
vn 0.4286 -0.2142 -0.8777
vn 0.5666 -0.0303 -0.8234
vn 0.5641 -0.0207 -0.8254
vn 0.1825 -0.1841 -0.9658
vn 0.2759 -0.4610 -0.8434
vn 0.1682 -0.5653 -0.8075
vn 0.0262 -0.5075 -0.8613
vn 0.0166 -0.4352 -0.9002
vn 0.3655 -0.9291 -0.0562
vn 0.5854 -0.8108 -0.0024
vn 0.3364 -0.9417 -0.0047
vn 0.3525 -0.9358 -0.0010
vn -0.1955 0.1148 -0.9740
vn -0.2050 0.2470 -0.9471
vn -0.1053 0.2801 -0.9542
vn 0.4577 -0.8699 -0.1835
vn 0.6019 -0.7568 -0.2548
vn 0.6662 -0.7163 -0.2077
vn 0.6515 -0.7520 -0.1005
vn 0.5178 -0.8520 -0.0770
vn 0.4925 -0.8665 -0.0817
vn 0.9191 -0.2979 -0.2580
vn 0.8699 -0.4800 -0.1134
vn 0.8292 -0.5208 -0.2031
vn 0.8560 -0.4383 -0.2741
vn -0.4131 0.1698 -0.8947
vn -0.4293 0.0619 -0.9010
vn -0.4405 0.0125 -0.8976
vn -0.6550 0.0396 -0.7546
vn -0.5828 0.1958 -0.7887
vn -0.6355 0.6689 -0.3856
vn -0.6154 0.7505 -0.2407
vn -0.5805 0.7664 -0.2752
vn -0.5508 0.8103 -0.2003
vn -0.4710 0.7239 -0.5041
vn -0.4505 0.7180 -0.5306
vn -0.0308 0.0145 -0.9994
vn 0.1217 0.0254 -0.9922
vn 0.1921 0.0147 -0.9813
vn 0.1562 -0.0169 -0.9876
vn 0.1888 -0.0017 -0.9820
vn 0.1972 -0.0018 -0.9804
vn -0.0336 -0.1487 -0.9883
vn -0.1096 -0.0809 -0.9907
vn -0.0739 -0.0009 0.9973
vn -0.0586 0.0173 0.9981
vn -0.1339 -0.2841 0.9494
vn 0.6947 -0.1690 -0.6992
vn 0.7830 0.0273 -0.6214
vn 0.8288 -0.0980 -0.5509
vn 0.0699 0.4634 -0.8834
vn 0.1005 0.5240 -0.8458
vn 0.2714 0.4828 -0.8326
vn 0.1899 0.1891 -0.9634
usemtl None
s off
f 1//1 2//1 3//1
f 1//2 3//2 4//2
f 1//3 4//3 5//3
f 1//4 5//4 6//4
f 1//5 6//5 7//5
f 1//6 7//6 8//6
f 1//7 8//7 9//7
f 1//4 9//4 10//4
f 1//8 10//8 11//8
f 1//9 11//9 12//9
f 1//10 12//10 13//10
f 14//11 15//11 16//11
f 14//12 16//12 17//12
f 14//13 17//13 18//13
f 19//14 20//14 21//14
f 22//15 23//15 12//15
f 2//16 1//16 24//16
f 25//17 14//17 18//17
f 26//18 27//18 28//18
f 26//19 28//19 29//19
f 26//20 29//20 30//20
f 11//21 22//21 12//21
f 31//22 19//22 21//22
f 31//23 21//23 7//23
f 31//24 7//24 32//24
f 33//25 34//25 35//25
f 36//26 37//26 38//26
f 36//27 38//27 39//27
f 40//28 41//28 42//28
f 43//29 39//29 38//29
f 43//30 38//30 44//30
f 43//31 44//31 29//31
f 43//32 29//32 28//32
f 45//33 46//33 47//33
f 48//34 23//34 22//34
f 48//35 41//35 49//35
f 50//36 3//36 51//36
f 50//37 51//37 52//37
f 50//38 52//38 53//38
f 54//39 55//39 44//39
f 56//40 29//40 44//40
f 56//41 44//41 55//41
f 56//42 55//42 57//42
f 56//43 57//43 58//43
f 59//44 40//44 39//44
f 60//45 53//45 52//45
f 60//46 52//46 61//46
f 60//47 61//47 62//47
f 60//48 62//48 47//48
f 60//49 35//49 53//49
f 63//50 2//50 24//50
f 64//51 14//51 25//51
f 64//52 25//52 65//52
f 64//53 65//53 66//53
f 67//54 10//54 9//54
f 68//55 22//55 11//55
f 68//56 11//56 10//56
f 10//57 67//57 69//57
f 10//58 69//58 68//58
f 68//59 70//59 48//59
f 68//60 48//60 22//60
f 71//61 19//61 25//61
f 71//62 25//62 18//62
f 71//63 18//63 72//63
f 71//64 72//64 20//64
f 71//65 20//65 19//65
f 73//66 3//66 2//66
f 73//67 2//67 63//67
f 73//68 61//68 52//68
f 73//69 52//69 51//69
f 73//70 51//70 3//70
f 74//71 58//71 57//71
f 35//72 34//72 58//72
f 35//73 58//73 74//73
f 15//74 35//74 74//74
f 15//75 74//75 16//75
f 14//76 50//76 53//76
f 14//77 53//77 15//77
f 15//78 53//78 35//78
f 75//79 65//79 32//79
f 75//80 32//80 7//80
f 75//81 7//81 76//81
f 8//82 7//82 77//82
f 8//83 77//83 37//83
f 4//84 3//84 50//84
f 4//85 50//85 14//85
f 4//86 14//86 64//86
f 4//87 64//87 66//87
f 77//88 7//88 21//88
f 77//89 21//89 54//89
f 77//90 54//90 44//90
f 77//91 44//91 38//91
f 77//92 38//92 37//92
f 13//93 12//93 23//93
f 78//94 49//94 79//94
f 78//95 23//95 48//95
f 78//96 48//96 49//96
f 80//97 79//97 45//97
f 80//98 45//98 47//98
f 80//99 47//99 62//99
f 80//100 62//100 81//100
f 80//101 81//101 79//101
f 82//102 65//102 75//102
f 82//103 75//103 76//103
f 82//104 76//104 83//104
f 82//105 83//105 66//105
f 82//106 66//106 65//106
f 84//107 58//107 34//107
f 85//108 46//108 45//108
f 85//109 45//109 79//109
f 85//110 79//110 49//110
f 17//111 72//111 18//111
f 86//112 39//112 40//112
f 86//113 40//113 42//113
f 86//114 36//114 39//114
f 87//115 88//115 23//115
f 87//116 23//116 78//116
f 87//117 78//117 79//117
f 87//118 79//118 81//118
f 81//119 24//119 88//119
f 81//120 88//120 87//120
f 89//121 57//121 55//121
f 89//122 20//122 72//122
f 88//123 24//123 1//123
f 88//124 1//124 13//124
f 88//125 13//125 23//125
f 90//126 65//126 25//126
f 90//127 25//127 19//127
f 90//128 19//128 31//128
f 90//129 31//129 32//129
f 90//130 32//130 65//130
f 91//131 61//131 73//131
f 91//132 73//132 63//132
f 91//133 63//133 24//133
f 91//134 24//134 81//134
f 91//135 81//135 62//135
f 91//136 62//136 61//136
f 4//137 66//137 83//137
f 4//138 83//138 5//138
f 92//139 55//139 54//139
f 54//140 21//140 20//140
f 54//141 20//141 92//141
f 92//142 20//142 89//142
f 92//143 89//143 55//143
f 93//144 41//144 40//144
f 93//145 40//145 59//145
f 93//146 59//146 46//146
f 46//147 85//147 94//147
f 46//148 94//148 93//148
f 95//149 27//149 59//149
f 95//150 59//150 39//150
f 95//151 39//151 43//151
f 95//152 43//152 28//152
f 95//153 28//153 27//153
f 96//154 37//154 36//154
f 96//155 67//155 9//155
f 96//156 9//156 8//156
f 96//157 8//157 37//157
f 97//158 30//158 84//158
f 97//159 84//159 34//159
f 97//160 34//160 33//160
f 98//161 36//161 86//161
f 98//162 86//162 42//162
f 98//163 42//163 69//163
f 98//164 69//164 67//164
f 98//165 67//165 96//165
f 98//166 96//166 36//166
f 70//167 41//167 48//167
f 70//168 68//168 69//168
f 70//169 69//169 42//169
f 70//170 42//170 41//170
f 99//171 58//171 84//171
f 99//172 84//172 30//172
f 99//173 30//173 29//173
f 99//174 29//174 56//174
f 99//175 56//175 58//175
f 100//176 57//176 89//176
f 100//177 89//177 72//177
f 72//178 17//178 16//178
f 72//179 16//179 100//179
f 16//180 74//180 57//180
f 16//181 57//181 100//181
f 101//182 30//182 97//182
f 101//183 97//183 33//183
f 33//184 47//184 46//184
f 33//185 46//185 59//185
f 33//186 59//186 27//186
f 33//187 27//187 101//187
f 101//188 27//188 26//188
f 101//189 26//189 30//189
f 6//190 5//190 83//190
f 6//191 83//191 76//191
f 6//192 76//192 7//192
f 94//193 41//193 93//193
f 94//194 85//194 49//194
f 94//195 49//195 41//195
f 102//196 33//196 35//196
f 102//197 35//197 60//197
f 102//198 60//198 47//198
f 102//199 47//199 33//199
