# Blender v2.93.6 OBJ File: ''
# www.blender.org
mtllib link5_convex.mtl
o link5.obj.convex
v -0.011763 -0.259001 0.053896
v -0.049720 -0.264554 0.003351
v -0.049702 -0.264544 -0.003472
v 0.055083 -0.259005 0.002321
v 0.054317 -0.258986 0.010114
v 0.048748 -0.259002 0.025715
v 0.042926 -0.259000 0.034475
v 0.034012 -0.258999 0.043461
v 0.022528 -0.258997 0.050277
v 0.011211 -0.259006 0.053977
v 0.003135 -0.258948 0.055128
v 0.049514 -0.008035 -0.104438
v 0.052580 -0.259000 -0.017422
v 0.043474 -0.258998 -0.034016
v 0.027149 -0.175367 -0.088218
v -0.001501 -0.234891 0.054086
v -0.022230 -0.194700 -0.084040
v -0.026016 -0.258996 -0.048977
v -0.043130 -0.258994 -0.034598
v -0.027600 -0.173066 -0.088409
v 0.008457 0.051580 -0.097855
v -0.004649 0.052168 -0.097802
v -0.002655 0.047984 -0.015805
v 0.014791 0.045936 -0.015774
v 0.040147 0.026312 -0.015803
v 0.031288 0.036584 -0.015806
v 0.017403 -0.220985 0.050181
v -0.049008 0.014702 -0.101881
v -0.050406 0.000262 -0.103940
v -0.047662 0.005784 -0.015861
v 0.011487 -0.258996 -0.054236
v 0.016970 -0.200849 -0.082864
v 0.023166 -0.191089 -0.084957
v 0.030975 -0.259001 -0.045755
v -0.011393 -0.199691 -0.084303
v -0.007970 -0.259003 -0.054581
v -0.007860 -0.216166 0.051413
v -0.029237 0.038075 -0.015796
v -0.038999 0.028229 -0.015812
v -0.023453 -0.221382 0.047983
v -0.006807 0.011324 -0.129518
v -0.016435 0.025051 -0.125262
v -0.002979 0.028930 -0.125747
v -0.032903 0.000226 -0.122164
v -0.016543 -0.007896 -0.127324
v -0.041061 -0.004035 -0.114696
v -0.017632 0.044786 -0.015806
v -0.025397 0.045450 -0.098560
v 0.003435 -0.214300 0.051526
v 0.037409 0.035842 -0.099821
v 0.030516 0.042053 -0.098952
v -0.055017 -0.258986 0.004388
v -0.052037 -0.259016 0.018093
v -0.053972 -0.259007 -0.011547
v -0.025513 -0.259017 0.048914
v -0.036886 -0.259013 0.040848
v 0.045144 -0.235642 0.031605
v 0.036992 -0.231671 0.040836
v 0.052146 -0.243011 0.017477
v 0.047668 0.005726 -0.015861
v -0.015879 0.040196 -0.111456
v -0.000101 0.038153 -0.117598
v -0.046492 -0.259049 0.029710
v -0.042351 -0.234111 0.035317
v 0.010322 0.027241 -0.125617
v 0.015182 0.035517 -0.116651
v 0.021609 0.021486 -0.124624
v -0.032165 -0.237578 0.044844
v 0.020163 0.048192 -0.098248
v -0.049871 -0.241469 0.023523
v 0.050526 0.003046 -0.103338
v 0.048581 0.015875 -0.101810
v 0.026756 -0.237477 0.048162
v -0.045252 0.016002 -0.015805
v 0.018286 -0.005254 -0.127374
v 0.033069 -0.002943 -0.121645
v 0.008238 0.014707 -0.128888
v 0.010180 -0.000721 -0.129396
v 0.018216 0.008189 -0.127911
v 0.031426 0.006909 -0.122907
v -0.006340 -0.006773 -0.129112
v -0.020300 -0.177150 -0.089922
v 0.000367 -0.185536 -0.089818
v 0.045218 0.016179 -0.015812
v -0.050298 -0.259002 -0.022377
v 0.014666 -0.183272 -0.089405
v 0.008646 -0.009444 -0.128414
v 0.045246 0.024398 -0.101018
v 0.038673 0.025256 -0.107987
v 0.031089 -0.223477 0.044128
v 0.012804 -0.244006 0.053442
v -0.020944 0.004685 -0.127182
v -0.028201 0.013646 -0.123798
v -0.041418 0.007594 -0.113500
v -0.034761 0.017193 -0.116530
v 0.041120 0.013545 -0.112056
v -0.018435 -0.232533 0.051272
v 0.002603 0.047947 -0.105303
v 0.029629 0.029617 -0.112933
v 0.026981 0.038056 -0.106874
v -0.031338 -0.227250 0.044683
v -0.034141 0.039097 -0.099325
v -0.027126 0.039382 -0.105324
v -0.030896 0.031109 -0.110555
v -0.040353 0.032255 -0.100177
v -0.049491 -0.007973 -0.104632
v -0.000707 -0.198830 -0.085375
v -0.019825 0.048275 -0.098533
v 0.042523 -0.006256 -0.112999
v -0.008002 0.046502 -0.106305
v 0.013170 0.045491 -0.105957
v -0.053213 -0.245524 0.013911
v -0.045413 0.023883 -0.101011
v -0.028435 0.023551 -0.118371
v 0.032510 0.019462 -0.117444
v 0.026521 0.015798 -0.124106
v 0.040191 0.003949 -0.115285
vn 0.1463 -0.9892 -0.0012
vn 0.0492 -0.9968 0.0638
vn 0.0020 -1.0000 0.0027
vn -0.0006 -1.0000 -0.0012
vn 0.0001 -1.0000 0.0003
vn 0.0000 -1.0000 0.0001
vn 0.0002 -1.0000 0.0006
vn -0.0002 -1.0000 -0.0029
vn -0.0004 -0.9989 0.0477
vn 0.8662 -0.1542 -0.4753
vn 0.8474 -0.1623 -0.5056
vn -0.0825 0.0272 0.9962
vn -0.6014 -0.3549 -0.7158
vn -0.6701 -0.3032 -0.6775
vn 0.0450 0.9977 0.0498
vn 0.1163 0.9915 0.0592
vn 0.2621 0.2262 0.9382
vn -0.9954 0.0927 0.0252
vn 0.4121 -0.4334 -0.8014
vn 0.3592 -0.4353 -0.8256
vn -0.2306 -0.4554 -0.8599
vn -0.2659 -0.4441 -0.8556
vn -0.2336 0.2301 0.9447
vn -0.2796 0.2214 0.9343
vn -0.1010 0.2293 -0.9681
vn -0.3791 -0.1881 -0.9060
vn -0.6161 -0.1687 -0.7694
vn -0.4999 0.8644 0.0538
vn -0.1393 0.2421 0.9602
vn -0.0505 0.2474 0.9676
vn -0.0528 0.2471 0.9675
vn 0.6717 0.7396 0.0424
vn 0.7564 0.6523 0.0493
vn -0.7020 -0.6959 0.1511
vn -0.9991 0.0300 0.0292
vn -0.9978 -0.0096 -0.0654
vn -0.1351 -0.9725 0.1900
vn -0.0524 -0.9876 0.1479
vn 0.7515 0.0097 0.6596
vn 0.8328 -0.0111 0.5535
vn 0.9018 0.0304 0.4311
vn 0.9081 0.0717 0.4127
vn 0.7686 0.1157 0.6291
vn -0.1867 0.6825 -0.7066
vn -0.2167 0.6620 -0.7175
vn -0.4980 -0.8346 0.2353
vn -0.2607 -0.9382 0.2279
vn -0.7571 -0.0211 0.6530
vn 0.0891 0.6437 -0.7601
vn 0.1616 0.6800 -0.7152
vn 0.3601 0.5801 -0.7306
vn -0.5783 -0.0246 0.8154
vn -0.6806 0.0133 0.7326
vn 0.7099 -0.0097 0.7042
vn 0.0275 0.2492 0.9681
vn -0.0315 0.1308 0.9909
vn 0.2029 0.2327 0.9511
vn 0.1392 0.2422 0.9602
vn 0.2791 0.9592 0.0444
vn 0.4925 0.8687 0.0526
vn 0.5121 0.8571 0.0568
vn -0.9023 -0.0219 0.4306
vn -0.8492 0.0224 0.5275
vn -0.8637 0.0868 0.4965
vn 0.9990 0.0302 0.0317
vn 0.9915 -0.0335 -0.1257
vn 0.9719 -0.0664 -0.2256
vn 0.9888 0.1466 0.0278
vn 0.5103 -0.0158 0.8599
vn 0.5761 0.0157 0.8172
vn -0.9726 0.2292 0.0390
vn -0.3976 0.2039 0.8946
vn 0.3803 -0.1886 -0.9054
vn -0.7248 -0.6889 -0.0030
vn -0.7553 -0.6535 -0.0487
vn -0.1754 -0.9622 -0.2086
vn -0.0451 -0.9886 -0.1440
vn 0.0022 -0.9944 -0.1060
vn 0.0309 -0.9969 -0.0717
vn 0.0441 -0.9979 -0.0467
vn 0.0503 -0.9983 -0.0277
vn 0.0532 -0.9986 -0.0070
vn -0.0065 0.2108 -0.9775
vn 0.0407 0.2460 -0.9684
vn 0.0335 0.0371 -0.9988
vn 0.1289 0.0488 -0.9905
vn 0.2301 0.2098 -0.9503
vn 0.1826 0.1918 -0.9643
vn 0.3483 -0.0617 -0.9353
vn 0.3659 -0.0353 -0.9300
vn 0.2219 -0.0378 -0.9743
vn -0.0089 -0.0227 -0.9997
vn 0.9415 -0.0270 0.3361
vn 0.9946 0.0346 0.0977
vn 0.9800 0.0437 0.1942
vn -0.1091 -0.2808 -0.9535
vn -0.1600 -0.2978 -0.9411
vn -0.3360 -0.2659 -0.9036
vn -0.3044 -0.1991 -0.9315
vn -0.1462 -0.2104 -0.9666
vn -0.0831 -0.2169 -0.9726
vn 0.9730 0.2279 0.0372
vn -0.4148 -0.8766 -0.2439
vn -0.6063 -0.7681 -0.2060
vn 0.1940 -0.2084 -0.9586
vn 0.2221 -0.2077 -0.9526
vn 0.6569 0.5081 -0.5570
vn 0.8263 0.5620 0.0368
vn 0.8935 0.4471 0.0434
vn 0.9318 0.3614 0.0352
vn 0.6344 0.1525 0.7578
vn 0.6486 0.1485 0.7465
vn 0.4011 0.1999 0.8939
vn 0.4263 0.1964 0.8830
vn 0.4206 0.1286 0.8981
vn 0.5554 0.0669 0.8289
vn 0.3108 0.0010 0.9505
vn 0.3437 0.0247 0.9388
vn 0.3248 0.0687 0.9433
vn 0.1472 0.1098 0.9830
vn 0.1067 0.0975 0.9895
vn 0.0824 0.0590 0.9949
vn -0.2620 0.1480 -0.9537
vn -0.2254 0.1408 -0.9640
vn -0.1510 -0.0261 -0.9882
vn -0.1673 -0.0474 -0.9848
vn -0.3489 -0.1115 -0.9305
vn -0.3952 0.0267 -0.9182
vn -0.7779 0.1618 -0.6072
vn -0.6620 0.2344 -0.7119
vn -0.6468 0.1352 -0.7506
vn -0.6892 0.0532 -0.7226
vn -0.7451 0.0456 -0.6654
vn 0.6664 -0.3096 -0.6783
vn 0.6478 -0.3236 -0.6897
vn 0.1911 -0.3203 -0.9279
vn 0.2517 -0.2573 -0.9330
vn 0.7728 0.1893 -0.6058
vn 0.7058 0.3343 -0.6245
vn 0.7141 0.3582 -0.6015
vn -0.1557 0.0585 0.9861
vn -0.1512 0.0892 0.9845
vn -0.2634 0.1620 0.9510
vn -0.4346 0.0360 0.8999
vn -0.3407 0.0073 0.9402
vn 0.0379 0.8861 -0.4620
vn 0.5891 0.5365 -0.6043
vn 0.4377 0.5874 -0.6808
vn 0.3819 0.6151 -0.6898
vn -0.4925 0.1834 0.8508
vn -0.6479 0.1487 0.7470
vn -0.6897 0.1364 0.7111
vn -0.6697 0.0651 0.7398
vn -0.4426 0.0647 0.8944
vn -0.4155 0.0474 0.9084
vn -0.5897 0.8064 0.0445
vn -0.5280 0.6125 -0.5883
vn -0.5657 0.5859 -0.5802
vn -0.7424 0.6686 0.0438
vn -0.7093 0.7032 0.0503
vn -0.8516 -0.1590 -0.4996
vn -0.8491 -0.1620 -0.5027
vn -0.9421 -0.1017 -0.3196
vn -0.9588 -0.0836 -0.2716
vn -0.7605 -0.0299 -0.6487
vn -0.7244 -0.1619 -0.6701
vn 0.0757 -0.4462 -0.8917
vn 0.0159 -0.4570 -0.8893
vn -0.0532 -0.4498 -0.8915
vn -0.0700 -0.3111 -0.9478
vn 0.0781 -0.3217 -0.9436
vn 0.0947 -0.3363 -0.9370
vn -0.4518 0.8907 0.0495
vn -0.2086 0.9769 0.0467
vn -0.2506 0.9665 0.0554
vn 0.7475 -0.1623 -0.6441
vn 0.6325 -0.1683 -0.7561
vn -0.0641 0.8419 -0.5358
vn -0.0489 0.7865 -0.6157
vn -0.1603 0.7368 -0.6569
vn -0.2556 0.7828 -0.5674
vn -0.1945 0.8499 -0.4897
vn 0.1692 0.7524 -0.6366
vn 0.1302 0.7372 -0.6631
vn 0.1603 0.8316 -0.5317
vn 0.2256 0.8373 -0.4980
vn 0.1411 0.0204 0.9898
vn -0.9902 0.0378 0.1342
vn -0.9770 -0.0193 0.2124
vn -0.9466 0.0173 0.3218
vn -0.9502 0.0573 0.3062
vn -0.9317 0.3615 0.0352
vn -0.8895 0.4549 0.0438
vn -0.8569 0.5141 0.0383
vn -0.6360 0.4471 -0.6289
vn -0.6360 0.4449 -0.6305
vn -0.6345 0.4491 -0.6291
vn -0.7201 0.3022 -0.6246
vn -0.6852 0.3298 -0.6494
vn 0.0073 -0.2144 -0.9767
vn 0.0255 -0.1163 -0.9929
vn 0.1658 -0.1391 -0.9763
vn 0.0624 -0.2165 -0.9743
vn -0.5880 0.3779 -0.7151
vn -0.4643 0.5591 -0.6869
vn -0.4922 0.4093 -0.7682
vn 0.6612 0.3657 -0.6550
vn 0.5865 0.4620 -0.6652
vn 0.5153 0.4658 -0.7194
vn 0.5743 0.4327 -0.6949
vn 0.7539 0.1429 -0.6413
vn 0.7562 -0.0041 -0.6544
vn 0.7778 0.0372 -0.6274
vn 0.6784 0.0191 -0.7345
vn 0.6520 -0.0208 -0.7579
vn 0.6790 0.1743 -0.7132
vn 0.6374 0.2703 -0.7216
vn 0.6387 0.2544 -0.7262
vn 0.3595 0.0728 -0.9303
vn 0.2856 0.1607 -0.9448
vn 0.5155 0.6502 -0.5581
vn 0.5324 0.5975 -0.5996
vn 0.3782 0.7114 -0.5924
vn 0.3351 0.7311 -0.5943
vn 0.3985 0.7349 -0.5487
vn -0.4724 0.7127 -0.5186
vn -0.3706 0.7365 -0.5659
vn -0.3646 0.7355 -0.5711
vn -0.4156 0.6210 -0.6645
vn -0.4117 0.6136 -0.6738
usemtl None
s off
f 1//1 2//1 3//1
f 1//2 3//2 4//2
f 1//3 4//3 5//3
f 1//4 5//4 6//4
f 1//5 6//5 7//5
f 1//6 7//6 8//6
f 1//7 8//7 9//7
f 1//8 9//8 10//8
f 1//9 10//9 11//9
f 12//10 13//10 14//10
f 12//11 14//11 15//11
f 1//12 11//12 16//12
f 17//13 18//13 19//13
f 17//14 19//14 20//14
f 21//15 22//15 23//15
f 21//16 23//16 24//16
f 25//17 26//17 27//17
f 28//18 29//18 30//18
f 31//19 32//19 33//19
f 31//20 33//20 34//20
f 18//21 17//21 35//21
f 18//22 35//22 36//22
f 37//23 38//23 39//23
f 37//24 39//24 40//24
f 41//25 42//25 43//25
f 44//26 45//26 20//26
f 44//27 20//27 46//27
f 47//28 48//28 38//28
f 47//29 38//29 37//29
f 47//30 37//30 49//30
f 47//31 49//31 23//31
f 50//32 51//32 26//32
f 50//33 26//33 25//33
f 52//34 2//34 53//34
f 52//35 30//35 29//35
f 52//36 29//36 54//36
f 55//37 56//37 2//37
f 55//38 2//38 1//38
f 57//39 58//39 7//39
f 57//40 7//40 6//40
f 57//41 6//41 59//41
f 57//42 59//42 60//42
f 57//43 60//43 58//43
f 61//44 62//44 43//44
f 61//45 43//45 42//45
f 63//46 53//46 2//46
f 63//47 2//47 56//47
f 63//48 56//48 64//48
f 65//49 43//49 62//49
f 65//50 62//50 66//50
f 65//51 66//51 67//51
f 68//52 56//52 55//52
f 68//53 64//53 56//53
f 8//54 7//54 58//54
f 49//55 24//55 23//55
f 49//56 37//56 16//56
f 49//57 27//57 26//57
f 49//58 26//58 24//58
f 69//59 21//59 24//59
f 24//60 26//60 51//60
f 24//61 51//61 69//61
f 70//62 53//62 63//62
f 70//63 63//63 64//63
f 70//64 64//64 30//64
f 71//65 60//65 4//65
f 71//66 4//66 13//66
f 71//67 13//67 12//67
f 71//68 72//68 60//68
f 73//69 9//69 8//69
f 73//70 8//70 58//70
f 74//71 28//71 30//71
f 74//72 40//72 39//72
f 75//73 76//73 15//73
f 3//74 2//74 52//74
f 3//75 52//75 54//75
f 3//76 19//76 18//76
f 3//77 18//77 36//77
f 3//78 36//78 31//78
f 3//79 31//79 34//79
f 3//80 34//80 14//80
f 3//81 14//81 13//81
f 3//82 13//82 4//82
f 77//83 41//83 43//83
f 77//84 43//84 65//84
f 77//85 78//85 41//85
f 79//86 78//86 77//86
f 79//87 77//87 65//87
f 79//88 65//88 67//88
f 79//89 80//89 76//89
f 79//90 76//90 75//90
f 79//91 75//91 78//91
f 81//92 41//92 78//92
f 5//93 59//93 6//93
f 5//94 4//94 60//94
f 5//95 60//95 59//95
f 82//96 83//96 35//96
f 82//97 35//97 17//97
f 82//98 17//98 20//98
f 82//99 20//99 45//99
f 82//100 45//100 81//100
f 82//101 81//101 83//101
f 84//102 60//102 72//102
f 85//103 19//103 3//103
f 85//104 3//104 54//104
f 86//105 87//105 75//105
f 86//106 75//106 15//106
f 88//107 89//107 50//107
f 88//108 50//108 25//108
f 88//109 25//109 84//109
f 88//110 84//110 72//110
f 90//111 58//111 60//111
f 90//112 60//112 84//112
f 90//113 84//113 25//113
f 90//114 25//114 27//114
f 90//115 27//115 73//115
f 90//116 73//116 58//116
f 91//117 10//117 9//117
f 91//118 9//118 73//118
f 91//119 73//119 27//119
f 91//120 27//120 49//120
f 91//121 49//121 16//121
f 91//122 16//122 11//122
f 92//123 93//123 42//123
f 92//124 42//124 41//124
f 92//125 41//125 81//125
f 92//126 81//126 45//126
f 92//127 45//127 44//127
f 92//128 44//128 93//128
f 94//129 29//129 28//129
f 94//130 95//130 93//130
f 94//131 93//131 44//131
f 94//132 44//132 46//132
f 94//133 46//133 29//133
f 33//134 15//134 14//134
f 33//135 14//135 34//135
f 33//136 32//136 86//136
f 33//137 86//137 15//137
f 96//138 72//138 71//138
f 89//139 88//139 72//139
f 89//140 72//140 96//140
f 97//141 1//141 16//141
f 97//142 16//142 37//142
f 97//143 37//143 40//143
f 97//144 68//144 55//144
f 97//145 55//145 1//145
f 98//146 22//146 21//146
f 99//147 50//147 89//147
f 67//148 66//148 100//148
f 67//149 100//149 99//149
f 101//150 40//150 74//150
f 101//151 74//151 30//151
f 101//152 30//152 64//152
f 101//153 64//153 68//153
f 68//154 97//154 40//154
f 68//155 40//155 101//155
f 102//156 38//156 48//156
f 102//157 103//157 104//157
f 102//158 104//158 105//158
f 102//159 105//159 39//159
f 102//160 39//160 38//160
f 20//161 19//161 85//161
f 20//162 85//162 106//162
f 106//163 85//163 54//163
f 106//164 54//164 29//164
f 106//165 29//165 46//165
f 106//166 46//166 20//166
f 107//167 32//167 31//167
f 107//168 31//168 36//168
f 107//169 36//169 35//169
f 107//170 35//170 83//170
f 107//171 83//171 86//171
f 107//172 86//172 32//172
f 108//173 48//173 47//173
f 108//174 47//174 23//174
f 108//175 23//175 22//175
f 109//176 12//176 15//176
f 109//177 15//177 76//177
f 110//178 22//178 98//178
f 110//179 98//179 62//179
f 110//180 62//180 61//180
f 110//181 61//181 108//181
f 110//182 108//182 22//182
f 66//183 62//183 98//183
f 66//184 98//184 111//184
f 111//185 98//185 21//185
f 111//186 21//186 69//186
f 10//187 91//187 11//187
f 112//188 30//188 52//188
f 112//189 52//189 53//189
f 112//190 53//190 70//190
f 112//191 70//191 30//191
f 113//192 28//192 74//192
f 113//193 74//193 39//193
f 113//194 39//194 105//194
f 113//195 105//195 104//195
f 113//196 104//196 114//196
f 113//197 114//197 95//197
f 113//198 95//198 94//198
f 113//199 94//199 28//199
f 87//200 83//200 81//200
f 87//201 81//201 78//201
f 87//202 78//202 75//202
f 87//203 86//203 83//203
f 114//204 93//204 95//204
f 114//205 104//205 42//205
f 114//206 42//206 93//206
f 115//207 89//207 96//207
f 99//208 89//208 115//208
f 99//209 115//209 116//209
f 99//210 116//210 67//210
f 117//211 96//211 71//211
f 117//212 71//212 12//212
f 117//213 12//213 109//213
f 109//214 76//214 80//214
f 109//215 80//215 117//215
f 117//216 80//216 96//216
f 116//217 115//217 96//217
f 116//218 96//218 80//218
f 116//219 80//219 79//219
f 116//220 79//220 67//220
f 100//221 51//221 50//221
f 100//222 50//222 99//222
f 66//223 111//223 69//223
f 66//224 69//224 100//224
f 100//225 69//225 51//225
f 103//226 102//226 48//226
f 103//227 48//227 108//227
f 103//228 108//228 61//228
f 61//229 42//229 104//229
f 61//230 104//230 103//230
